<?xml version="1.0" encoding="UTF-8"?> <svg xmlns="http://www.w3.org/2000/svg" width="108" height="67" viewBox="0 0 108 67" fill="none"> <path d="M98.2551 66.8376H0L8.90579 37.7017H107.159L98.2551 66.8376Z" fill="#04AFC7"></path> <path d="M41.9165 26.7786V8.56447H49.9205V14.5991H53.6024V8.55968H61.6122V26.7738H53.6044V20.7344H49.9205V26.7738L41.9165 26.7786ZM81.5331 16.6487L84.5739 8.56064H76.7673L74.3369 14.6001H72.9061V8.56064H64.8993V26.7796H72.9052V20.7401H74.8219L77.2532 26.7796H85.2428L81.5331 16.6487ZM96.5674 21.2338C94.6354 21.2338 94.1821 19.723 94.1821 18.5496C94.1821 17.3763 94.6354 15.9009 96.5674 15.9009C98.4601 15.9009 98.9153 17.3772 98.9153 18.5496C98.9153 19.7221 98.4601 21.2338 96.5674 21.2338ZM99.4424 10.5929C97.0178 10.5929 95.3532 11.5372 94.2176 12.7508C94.2549 11.1978 95.3896 9.56912 96.9421 8.92779C99.6254 7.78893 102.735 8.5846 104.932 6.65199V0C104.932 0 103.053 0.76691 99.589 1.17912C97.5075 1.42454 94.5549 2.08695 91.9444 3.73294C88.6861 5.77771 86.3784 9.14828 86.3784 15.9661C86.3784 24.8671 91.5266 27.3662 96.8242 27.3662C102.049 27.3662 106.707 24.7166 106.707 18.8823C106.707 13.2771 103.374 10.5891 99.4376 10.5891L99.4424 10.5929ZM28.1319 20.9712C27.0317 20.9712 26.1194 20.3241 25.7782 19.6799V15.6536C26.1615 15.0084 27.0307 14.3642 28.1319 14.3642C30.0648 14.3642 30.9005 16.0332 30.9005 17.6667C30.9006 17.8703 30.8871 18.0737 30.8602 18.2755C30.6772 19.6923 29.8243 20.9712 28.1319 20.9712ZM39.1335 17.6687C39.1335 13.188 37.0999 8.95272 32.521 8.10528C32.4175 8.08611 32.3121 8.06886 32.2038 8.05352C31.9355 8.01421 31.6566 7.98354 31.3691 7.9682C31.1774 7.95765 30.9858 7.9519 30.7884 7.9519C30.6197 7.9519 30.4539 7.9519 30.2871 7.96532C30.2805 7.96446 30.2737 7.96446 30.267 7.96532C28.8017 8.0516 27.5166 8.50791 26.5362 9.1943C25.8911 9.6238 25.3164 10.1506 24.8323 10.7559L24.1615 8.55584H17.8106V34.0556H25.8165V25.6771C26.4362 26.2241 27.1566 26.6448 27.9373 26.9157C28.7299 27.2368 29.6412 27.3854 30.7864 27.3854C36.593 27.3854 39.1345 22.6775 39.1345 17.6687H39.1335Z" fill="white"></path> </svg> 