<?xml version="1.0" encoding="UTF-8"?> <svg xmlns="http://www.w3.org/2000/svg" width="198" height="127" viewBox="0 0 198 127" fill="none"> <path d="M6.05713 0.544861V12.677" stroke="white" stroke-miterlimit="10"></path> <path d="M12.1143 6.61096H0" stroke="white" stroke-miterlimit="10"></path> <path d="M43.0894 0.544861V12.677" stroke="white" stroke-miterlimit="10"></path> <path d="M49.1465 6.61096H37.0322" stroke="white" stroke-miterlimit="10"></path> <path d="M80.1426 0.544861V12.677" stroke="white" stroke-miterlimit="10"></path> <path d="M86.1998 6.61096H74.0854" stroke="white" stroke-miterlimit="10"></path> <path d="M117.175 0.544861V12.677" stroke="white" stroke-miterlimit="10"></path> <path d="M123.232 6.61096H111.118" stroke="white" stroke-miterlimit="10"></path> <path d="M154.228 0.544861V12.677" stroke="white" stroke-miterlimit="10"></path> <path d="M160.264 6.61096H148.17" stroke="white" stroke-miterlimit="10"></path> <path d="M191.26 0.544861V12.677" stroke="white" stroke-miterlimit="10"></path> <path d="M197.317 6.61096H185.203" stroke="white" stroke-miterlimit="10"></path> <path d="M6.05713 38.5519V50.6631" stroke="white" stroke-miterlimit="10"></path> <path d="M12.1143 44.597H0" stroke="white" stroke-miterlimit="10"></path> <path d="M43.0894 38.5519V50.6631" stroke="white" stroke-miterlimit="10"></path> <path d="M49.1465 44.597H37.0322" stroke="white" stroke-miterlimit="10"></path> <path d="M80.1426 38.5519V50.6631" stroke="white" stroke-miterlimit="10"></path> <path d="M86.1998 44.597H74.0854" stroke="white" stroke-miterlimit="10"></path> <path d="M117.175 38.5519V50.6631" stroke="white" stroke-miterlimit="10"></path> <path d="M123.232 44.597H111.118" stroke="white" stroke-miterlimit="10"></path> <path d="M154.228 38.5519V50.6631" stroke="white" stroke-miterlimit="10"></path> <path d="M160.264 44.597H148.17" stroke="white" stroke-miterlimit="10"></path> <path d="M191.26 38.5519V50.6631" stroke="white" stroke-miterlimit="10"></path> <path d="M197.317 44.597H185.203" stroke="white" stroke-miterlimit="10"></path> <path d="M6.05713 76.538V88.6701" stroke="white" stroke-miterlimit="10"></path> <path d="M12.1143 82.6039H0" stroke="white" stroke-miterlimit="10"></path> <path d="M43.0894 76.538V88.6701" stroke="white" stroke-miterlimit="10"></path> <path d="M49.1465 82.6039H37.0322" stroke="white" stroke-miterlimit="10"></path> <path d="M80.1426 76.538V88.6701" stroke="white" stroke-miterlimit="10"></path> <path d="M86.1998 82.6039H74.0854" stroke="white" stroke-miterlimit="10"></path> <path d="M117.175 76.538V88.6701" stroke="white" stroke-miterlimit="10"></path> <path d="M123.232 82.6039H111.118" stroke="white" stroke-miterlimit="10"></path> <path d="M154.228 76.538V88.6701" stroke="white" stroke-miterlimit="10"></path> <path d="M160.264 82.6039H148.17" stroke="white" stroke-miterlimit="10"></path> <path d="M191.26 76.538V88.6701" stroke="white" stroke-miterlimit="10"></path> <path d="M197.317 82.6039H185.203" stroke="white" stroke-miterlimit="10"></path> <path d="M6.05713 114.545V126.656" stroke="white" stroke-miterlimit="10"></path> <path d="M12.1143 120.611H0" stroke="white" stroke-miterlimit="10"></path> <path d="M43.0894 114.545V126.656" stroke="white" stroke-miterlimit="10"></path> <path d="M49.1465 120.611H37.0322" stroke="white" stroke-miterlimit="10"></path> <path d="M80.1426 114.545V126.656" stroke="white" stroke-miterlimit="10"></path> <path d="M86.1998 120.611H74.0854" stroke="white" stroke-miterlimit="10"></path> <path d="M117.175 114.545V126.656" stroke="white" stroke-miterlimit="10"></path> <path d="M123.232 120.611H111.118" stroke="white" stroke-miterlimit="10"></path> <path d="M154.228 114.545V126.656" stroke="white" stroke-miterlimit="10"></path> <path d="M160.264 120.611H148.17" stroke="white" stroke-miterlimit="10"></path> <path d="M191.26 114.545V126.656" stroke="white" stroke-miterlimit="10"></path> <path d="M197.317 120.611H185.203" stroke="white" stroke-miterlimit="10"></path> </svg> 