<?xml version="1.0" encoding="UTF-8"?> <svg xmlns="http://www.w3.org/2000/svg" width="376" height="176" viewBox="0 0 376 176" fill="none"> <path d="M323.157 26.9292H65.6943V147.275H102.687L111.953 172.96L120.885 147.275H323.157V26.9292Z" fill="#00A7BF" stroke="#090812" stroke-miterlimit="10"></path> <path d="M375.305 130.763H187.188V175.309H375.305V130.763Z" fill="#B4CC40" stroke="#090812" stroke-miterlimit="10"></path> <path d="M352.051 141.582H329.019V164.491H352.051V141.582Z" fill="#A8A9BC" stroke="#090812" stroke-miterlimit="10"></path> <path d="M345.092 148.504L335.979 157.568" stroke="#090812" stroke-miterlimit="10"></path> <path d="M335.979 148.504L345.092 157.568" stroke="#090812" stroke-miterlimit="10"></path> <path d="M232.348 147.836L232.379 148.452C233.375 147.98 234.202 147.743 234.86 147.743C235.517 147.743 236.031 147.97 236.401 148.422C236.781 148.874 236.971 149.49 236.971 150.271V155.156H236.154V150.271C236.154 149.767 236.031 149.351 235.784 149.023C235.538 148.704 235.168 148.545 234.675 148.545C234.181 148.545 233.416 148.771 232.379 149.223V155.156H231.562V147.836H232.348ZM239.128 151.504C239.128 150.322 239.37 149.403 239.852 148.745C240.345 148.077 241.059 147.743 241.994 147.743C242.929 147.743 243.623 148.052 244.075 148.668C244.537 149.284 244.768 150.106 244.768 151.134L244.722 151.904H240.006C240.058 152.675 240.263 153.301 240.623 153.784C240.982 154.257 241.476 154.493 242.102 154.493C242.739 154.493 243.484 154.344 244.337 154.046L244.568 154.817C243.736 155.135 242.955 155.294 242.226 155.294C241.219 155.294 240.448 154.961 239.914 154.293C239.39 153.615 239.128 152.685 239.128 151.504ZM242.056 148.529C240.762 148.529 240.078 149.397 240.006 151.134H243.89C243.89 149.397 243.279 148.529 242.056 148.529ZM252.165 147.836H252.966L252.088 155.156H250.454L249.669 151.966H249.607L248.806 155.156H247.188L246.34 147.836H247.141L247.943 154.416H248.22L249.252 150.702H250.054L251.086 154.416H251.364L252.165 147.836ZM262.413 154.801L262.613 154C263.63 154.339 264.416 154.508 264.971 154.508C265.525 154.508 265.952 154.39 266.25 154.154C266.558 153.907 266.712 153.584 266.712 153.183C266.712 152.783 266.589 152.49 266.342 152.305C266.106 152.11 265.608 151.925 264.847 151.75C264.087 151.575 263.517 151.324 263.137 150.995C262.757 150.687 262.567 150.225 262.567 149.608C262.567 148.992 262.798 148.524 263.26 148.206C263.733 147.877 264.339 147.713 265.079 147.713C265.818 147.713 266.62 147.877 267.482 148.206L267.267 148.93C266.394 148.642 265.69 148.499 265.156 148.499C264.621 148.499 264.2 148.591 263.892 148.776C263.584 148.981 263.43 149.259 263.43 149.608C263.43 149.957 263.563 150.23 263.83 150.425C264.108 150.62 264.637 150.815 265.418 151.01C266.198 151.206 266.753 151.457 267.082 151.766C267.411 152.063 267.575 152.536 267.575 153.183C267.575 153.83 267.354 154.344 266.912 154.724C266.481 155.104 265.864 155.294 265.063 155.294C264.262 155.294 263.378 155.13 262.413 154.801ZM270.225 147.836L270.272 148.298C270.785 147.928 271.181 147.743 271.458 147.743C272.136 147.743 272.604 147.964 272.861 148.406C273.436 147.964 273.939 147.743 274.371 147.743C275.039 147.743 275.496 147.949 275.742 148.36C275.989 148.771 276.112 149.403 276.112 150.255V155.156H275.295V150.255C275.295 149.67 275.234 149.238 275.11 148.961C274.987 148.673 274.751 148.529 274.402 148.529C274.052 148.529 273.621 148.694 273.107 149.023C273.169 149.372 273.2 149.783 273.2 150.255V152.813H272.383V150.255C272.383 149.67 272.321 149.238 272.198 148.961C272.064 148.673 271.823 148.529 271.474 148.529C271.124 148.529 270.724 148.694 270.272 149.023V155.156H269.455V147.836H270.225ZM277.823 154.801L278.023 154C279.04 154.339 279.826 154.508 280.381 154.508C280.935 154.508 281.362 154.39 281.66 154.154C281.968 153.907 282.122 153.584 282.122 153.183C282.122 152.783 281.999 152.49 281.752 152.305C281.516 152.11 281.018 151.925 280.257 151.75C279.497 151.575 278.927 151.324 278.547 150.995C278.167 150.687 277.977 150.225 277.977 149.608C277.977 148.992 278.208 148.524 278.67 148.206C279.143 147.877 279.749 147.713 280.489 147.713C281.228 147.713 282.03 147.877 282.892 148.206L282.677 148.93C281.804 148.642 281.1 148.499 280.566 148.499C280.031 148.499 279.61 148.591 279.302 148.776C278.994 148.981 278.84 149.259 278.84 149.608C278.84 149.957 278.973 150.23 279.24 150.425C279.518 150.62 280.047 150.815 280.828 151.01C281.608 151.206 282.163 151.457 282.492 151.766C282.821 152.063 282.985 152.536 282.985 153.183C282.985 153.83 282.764 154.344 282.322 154.724C281.891 155.104 281.274 155.294 280.473 155.294C279.672 155.294 278.788 155.13 277.823 154.801Z" fill="black"></path> <path d="M232.348 147.836L232.473 147.83L232.467 147.711H232.348V147.836ZM232.379 148.452L232.254 148.459L232.263 148.645L232.432 148.565L232.379 148.452ZM236.401 148.422L236.304 148.501L236.305 148.502L236.401 148.422ZM236.971 155.156V155.281H237.096V155.156H236.971ZM236.154 155.156H236.029V155.281H236.154V155.156ZM235.784 149.023L235.884 148.948L235.883 148.946L235.784 149.023ZM232.379 149.223L232.329 149.108L232.254 149.141V149.223H232.379ZM232.379 155.156V155.281H232.504V155.156H232.379ZM231.562 155.156H231.437V155.281H231.562V155.156ZM231.562 147.836V147.711H231.437V147.836H231.562ZM232.223 147.842L232.254 148.459L232.503 148.446L232.473 147.83L232.223 147.842ZM232.432 148.565C233.422 148.096 234.229 147.868 234.86 147.868V147.618C234.175 147.618 233.328 147.864 232.325 148.339L232.432 148.565ZM234.86 147.868C235.485 147.868 235.961 148.082 236.304 148.501L236.497 148.342C236.101 147.857 235.549 147.618 234.86 147.618V147.868ZM236.305 148.502C236.661 148.925 236.846 149.51 236.846 150.271H237.096C237.096 149.47 236.901 148.822 236.496 148.341L236.305 148.502ZM236.846 150.271V155.156H237.096V150.271H236.846ZM236.971 155.031H236.154V155.281H236.971V155.031ZM236.279 155.156V150.271H236.029V155.156H236.279ZM236.279 150.271C236.279 149.747 236.15 149.302 235.884 148.948L235.684 149.098C235.911 149.4 236.029 149.788 236.029 150.271H236.279ZM235.883 148.946C235.607 148.59 235.197 148.42 234.675 148.42V148.67C235.139 148.67 235.468 148.818 235.685 149.099L235.883 148.946ZM234.675 148.42C234.153 148.42 233.367 148.656 232.329 149.108L232.428 149.337C233.466 148.886 234.21 148.67 234.675 148.67V148.42ZM232.254 149.223V155.156H232.504V149.223H232.254ZM232.379 155.031H231.562V155.281H232.379V155.031ZM231.687 155.156V147.836H231.437V155.156H231.687ZM231.562 147.961H232.348V147.711H231.562V147.961ZM239.852 148.745L239.752 148.671L239.752 148.671L239.852 148.745ZM244.075 148.668L243.974 148.742L243.975 148.743L244.075 148.668ZM244.768 151.134L244.893 151.141V151.134H244.768ZM244.722 151.904V152.029H244.84L244.847 151.912L244.722 151.904ZM240.006 151.904V151.779H239.873L239.882 151.913L240.006 151.904ZM240.623 153.784L240.523 153.859L240.523 153.86L240.623 153.784ZM244.337 154.046L244.456 154.01L244.419 153.885L244.295 153.928L244.337 154.046ZM244.568 154.817L244.613 154.933L244.721 154.892L244.688 154.781L244.568 154.817ZM239.914 154.293L239.815 154.369L239.816 154.371L239.914 154.293ZM240.006 151.134L239.882 151.129L239.876 151.259H240.006V151.134ZM243.89 151.134V151.259H244.015V151.134H243.89ZM239.253 151.504C239.253 150.337 239.492 149.447 239.953 148.819L239.752 148.671C239.247 149.358 239.003 150.307 239.003 151.504H239.253ZM239.953 148.819C240.419 148.188 241.093 147.868 241.994 147.868V147.618C241.026 147.618 240.272 147.967 239.752 148.671L239.953 148.819ZM241.994 147.868C242.899 147.868 243.551 148.165 243.974 148.742L244.176 148.594C243.695 147.938 242.959 147.618 241.994 147.618V147.868ZM243.975 148.743C244.416 149.332 244.643 150.124 244.643 151.134H244.893C244.893 150.088 244.658 149.237 244.175 148.593L243.975 148.743ZM244.643 151.126L244.597 151.897L244.847 151.912L244.893 151.141L244.643 151.126ZM244.722 151.779H240.006V152.029H244.722V151.779ZM239.882 151.913C239.934 152.7 240.145 153.352 240.523 153.859L240.723 153.71C240.381 153.251 240.181 152.649 240.131 151.896L239.882 151.913ZM240.523 153.86C240.908 154.365 241.439 154.618 242.102 154.618V154.368C241.512 154.368 241.057 154.148 240.722 153.709L240.523 153.86ZM242.102 154.618C242.758 154.618 243.517 154.465 244.378 154.164L244.295 153.928C243.451 154.223 242.721 154.368 242.102 154.368V154.618ZM244.217 154.082L244.448 154.853L244.688 154.781L244.456 154.01L244.217 154.082ZM244.523 154.7C243.702 155.014 242.937 155.169 242.226 155.169V155.419C242.973 155.419 243.769 155.256 244.613 154.933L244.523 154.7ZM242.226 155.169C241.249 155.169 240.518 154.847 240.012 154.215L239.816 154.371C240.379 155.074 241.188 155.419 242.226 155.419V155.169ZM240.013 154.216C239.511 153.567 239.253 152.668 239.253 151.504H239.003C239.003 152.702 239.269 153.662 239.815 154.369L240.013 154.216ZM242.056 148.404C241.378 148.404 240.844 148.634 240.475 149.103C240.11 149.567 239.918 150.248 239.882 151.129L240.131 151.139C240.167 150.283 240.353 149.662 240.671 149.258C240.985 148.859 241.44 148.654 242.056 148.654V148.404ZM240.006 151.259H243.89V151.009H240.006V151.259ZM244.015 151.134C244.015 150.255 243.861 149.573 243.534 149.109C243.201 148.636 242.701 148.404 242.056 148.404V148.654C242.634 148.654 243.051 148.857 243.329 149.252C243.613 149.656 243.765 150.276 243.765 151.134H244.015ZM252.165 147.836V147.711H252.054L252.041 147.821L252.165 147.836ZM252.966 147.836L253.09 147.851L253.107 147.711H252.966V147.836ZM252.088 155.156V155.281H252.199L252.212 155.171L252.088 155.156ZM250.454 155.156L250.333 155.186L250.357 155.281H250.454V155.156ZM249.669 151.966L249.79 151.936L249.766 151.841H249.669V151.966ZM249.607 151.966V151.841H249.509L249.486 151.935L249.607 151.966ZM248.806 155.156V155.281H248.903L248.927 155.186L248.806 155.156ZM247.188 155.156L247.063 155.17L247.076 155.281H247.188V155.156ZM246.34 147.836V147.711H246.2L246.216 147.85L246.34 147.836ZM247.141 147.836L247.265 147.821L247.252 147.711H247.141V147.836ZM247.943 154.416L247.819 154.431L247.832 154.541H247.943V154.416ZM248.22 154.416V154.541H248.315L248.34 154.45L248.22 154.416ZM249.252 150.702V150.577H249.157L249.132 150.669L249.252 150.702ZM250.054 150.702L250.174 150.669L250.149 150.577H250.054V150.702ZM251.086 154.416L250.966 154.45L250.991 154.541H251.086V154.416ZM251.364 154.416V154.541H251.474L251.488 154.431L251.364 154.416ZM252.165 147.961H252.966V147.711H252.165V147.961ZM252.842 147.821L251.964 155.141L252.212 155.171L253.09 147.851L252.842 147.821ZM252.088 155.031H250.454V155.281H252.088V155.031ZM250.576 155.126L249.79 151.936L249.547 151.996L250.333 155.186L250.576 155.126ZM249.669 151.841H249.607V152.091H249.669V151.841ZM249.486 151.935L248.684 155.125L248.927 155.186L249.728 151.996L249.486 151.935ZM248.806 155.031H247.188V155.281H248.806V155.031ZM247.312 155.141L246.464 147.822L246.216 147.85L247.063 155.17L247.312 155.141ZM246.34 147.961H247.141V147.711H246.34V147.961ZM247.017 147.851L247.819 154.431L248.067 154.401L247.265 147.821L247.017 147.851ZM247.943 154.541H248.22V154.291H247.943V154.541ZM248.34 154.45L249.373 150.736L249.132 150.669L248.1 154.383L248.34 154.45ZM249.252 150.827H250.054V150.577H249.252V150.827ZM249.933 150.736L250.966 154.45L251.207 154.383L250.174 150.669L249.933 150.736ZM251.086 154.541H251.364V154.291H251.086V154.541ZM251.488 154.431L252.289 147.851L252.041 147.821L251.24 154.401L251.488 154.431ZM262.413 154.801L262.291 154.771L262.263 154.883L262.372 154.92L262.413 154.801ZM262.613 154L262.652 153.881L262.524 153.839L262.492 153.97L262.613 154ZM266.25 154.154L266.327 154.252L266.328 154.252L266.25 154.154ZM266.342 152.305L266.262 152.401L266.267 152.405L266.342 152.305ZM264.847 151.75L264.875 151.628L264.847 151.75ZM263.137 150.995L263.219 150.9L263.216 150.898L263.137 150.995ZM263.26 148.206L263.331 148.309L263.332 148.308L263.26 148.206ZM267.482 148.206L267.602 148.241L267.635 148.13L267.527 148.089L267.482 148.206ZM267.267 148.93L267.228 149.049L267.35 149.089L267.387 148.966L267.267 148.93ZM263.892 148.776L263.828 148.669L263.823 148.672L263.892 148.776ZM263.83 150.425L263.757 150.526L263.758 150.527L263.83 150.425ZM265.418 151.01L265.448 150.889L265.418 151.01ZM267.082 151.766L266.996 151.857L266.998 151.858L267.082 151.766ZM266.912 154.724L266.831 154.629L266.83 154.63L266.912 154.724ZM262.534 154.832L262.734 154.03L262.492 153.97L262.291 154.771L262.534 154.832ZM262.573 154.119C263.594 154.459 264.395 154.633 264.971 154.633V154.383C264.437 154.383 263.666 154.219 262.652 153.881L262.573 154.119ZM264.971 154.633C265.541 154.633 265.999 154.512 266.327 154.252L266.172 154.056C265.904 154.268 265.51 154.383 264.971 154.383V154.633ZM266.328 154.252C266.666 153.981 266.837 153.621 266.837 153.183H266.587C266.587 153.547 266.45 153.834 266.172 154.056L266.328 154.252ZM266.837 153.183C266.837 152.756 266.704 152.42 266.417 152.205L266.267 152.405C266.473 152.559 266.587 152.809 266.587 153.183H266.837ZM266.422 152.208C266.288 152.098 266.089 151.997 265.835 151.903C265.579 151.808 265.259 151.716 264.875 151.628L264.819 151.872C265.196 151.959 265.505 152.047 265.748 152.137C265.992 152.228 266.16 152.317 266.263 152.401L266.422 152.208ZM264.875 151.628C264.125 151.456 263.577 151.21 263.219 150.9L263.055 151.09C263.457 151.437 264.049 151.695 264.819 151.872L264.875 151.628ZM263.216 150.898C262.872 150.619 262.692 150.197 262.692 149.608H262.442C262.442 150.252 262.641 150.754 263.058 151.092L263.216 150.898ZM262.692 149.608C262.692 149.028 262.906 148.601 263.331 148.309L263.189 148.103C262.689 148.447 262.442 148.955 262.442 149.608H262.692ZM263.332 148.308C263.778 147.998 264.357 147.838 265.079 147.838V147.588C264.321 147.588 263.688 147.756 263.189 148.103L263.332 148.308ZM265.079 147.838C265.8 147.838 266.586 147.998 267.438 148.323L267.527 148.089C266.653 147.756 265.837 147.588 265.079 147.588V147.838ZM267.363 148.17L267.147 148.894L267.387 148.966L267.602 148.241L267.363 148.17ZM267.306 148.811C266.428 148.522 265.709 148.374 265.156 148.374V148.624C265.67 148.624 266.359 148.763 267.228 149.049L267.306 148.811ZM265.156 148.374C264.609 148.374 264.163 148.468 263.828 148.669L263.956 148.883C264.238 148.714 264.634 148.624 265.156 148.624V148.374ZM263.823 148.672C263.482 148.899 263.305 149.214 263.305 149.608H263.555C263.555 149.304 263.685 149.064 263.961 148.88L263.823 148.672ZM263.305 149.608C263.305 149.995 263.455 150.306 263.757 150.526L263.904 150.324C263.671 150.154 263.555 149.92 263.555 149.608H263.305ZM263.758 150.527C264.057 150.737 264.606 150.936 265.387 151.132L265.448 150.889C264.667 150.694 264.159 150.503 263.902 150.323L263.758 150.527ZM265.387 151.132C266.161 151.325 266.691 151.57 266.996 151.857L267.167 151.674C266.815 151.344 266.235 151.086 265.448 150.889L265.387 151.132ZM266.998 151.858C267.29 152.123 267.45 152.555 267.45 153.183H267.7C267.7 152.517 267.531 152.004 267.166 151.673L266.998 151.858ZM267.45 153.183C267.45 153.799 267.242 154.276 266.831 154.629L266.994 154.819C267.466 154.412 267.7 153.862 267.7 153.183H267.45ZM266.83 154.63C266.429 154.984 265.846 155.169 265.063 155.169V155.419C265.883 155.419 266.533 155.225 266.995 154.818L266.83 154.63ZM265.063 155.169C264.279 155.169 263.409 155.008 262.453 154.683L262.372 154.92C263.348 155.252 264.245 155.419 265.063 155.419V155.169ZM270.225 147.836L270.35 147.824L270.339 147.711H270.225V147.836ZM270.272 148.298L270.147 148.311L270.169 148.526L270.345 148.4L270.272 148.298ZM272.861 148.406L272.753 148.469L272.824 148.592L272.937 148.505L272.861 148.406ZM275.742 148.36L275.635 148.424L275.742 148.36ZM276.112 155.156V155.281H276.237V155.156H276.112ZM275.295 155.156H275.17V155.281H275.295V155.156ZM275.11 148.961L274.996 149.01L274.996 149.012L275.11 148.961ZM273.107 149.023L273.04 148.917L272.97 148.962L272.984 149.044L273.107 149.023ZM273.2 152.813V152.938H273.325V152.813H273.2ZM272.383 152.813H272.258V152.938H272.383V152.813ZM272.198 148.961L272.312 148.91L272.311 148.908L272.198 148.961ZM270.272 149.023L270.198 148.921L270.147 148.959V149.023H270.272ZM270.272 155.156V155.281H270.397V155.156H270.272ZM269.455 155.156H269.33V155.281H269.455V155.156ZM269.455 147.836V147.711H269.33V147.836H269.455ZM270.101 147.848L270.147 148.311L270.396 148.286L270.35 147.824L270.101 147.848ZM270.345 148.4C270.598 148.217 270.818 148.083 271.007 147.995C271.196 147.907 271.345 147.868 271.458 147.868V147.618C271.294 147.618 271.106 147.673 270.901 147.769C270.693 147.866 270.459 148.009 270.199 148.197L270.345 148.4ZM271.458 147.868C272.108 147.868 272.525 148.078 272.753 148.469L272.969 148.343C272.682 147.851 272.164 147.618 271.458 147.618V147.868ZM272.937 148.505C273.504 148.07 273.98 147.868 274.371 147.868V147.618C273.899 147.618 273.368 147.859 272.784 148.307L272.937 148.505ZM274.371 147.868C275.014 147.868 275.419 148.065 275.635 148.424L275.849 148.296C275.572 147.833 275.063 147.618 274.371 147.618V147.868ZM275.635 148.424C275.864 148.806 275.987 149.41 275.987 150.255H276.237C276.237 149.395 276.114 148.736 275.849 148.296L275.635 148.424ZM275.987 150.255V155.156H276.237V150.255H275.987ZM276.112 155.031H275.295V155.281H276.112V155.031ZM275.42 155.156V150.255H275.17V155.156H275.42ZM275.42 150.255C275.42 149.666 275.359 149.212 275.225 148.91L274.996 149.012C275.108 149.264 275.17 149.674 275.17 150.255H275.42ZM275.225 148.912C275.155 148.747 275.049 148.618 274.906 148.53C274.764 148.444 274.593 148.404 274.402 148.404V148.654C274.559 148.654 274.682 148.687 274.776 148.744C274.869 148.801 274.943 148.887 274.996 149.01L275.225 148.912ZM274.402 148.404C274.017 148.404 273.56 148.584 273.04 148.917L273.175 149.128C273.681 148.804 274.088 148.654 274.402 148.654V148.404ZM272.984 149.044C273.044 149.384 273.075 149.788 273.075 150.255H273.325C273.325 149.778 273.293 149.359 273.23 149.001L272.984 149.044ZM273.075 150.255V152.813H273.325V150.255H273.075ZM273.2 152.688H272.383V152.938H273.2V152.688ZM272.508 152.813V150.255H272.258V152.813H272.508ZM272.508 150.255C272.508 149.666 272.446 149.212 272.312 148.91L272.084 149.012C272.196 149.264 272.258 149.674 272.258 150.255H272.508ZM272.311 148.908C272.235 148.745 272.126 148.616 271.981 148.53C271.836 148.444 271.665 148.404 271.474 148.404V148.654C271.631 148.654 271.756 148.687 271.853 148.745C271.949 148.802 272.027 148.889 272.085 149.014L272.311 148.908ZM271.474 148.404C271.086 148.404 270.66 148.586 270.198 148.921L270.345 149.124C270.788 148.802 271.162 148.654 271.474 148.654V148.404ZM270.147 149.023V155.156H270.397V149.023H270.147ZM270.272 155.031H269.455V155.281H270.272V155.031ZM269.58 155.156V147.836H269.33V155.156H269.58ZM269.455 147.961H270.225V147.711H269.455V147.961ZM277.823 154.801L277.701 154.771L277.673 154.883L277.782 154.92L277.823 154.801ZM278.023 154L278.062 153.881L277.934 153.839L277.902 153.97L278.023 154ZM281.66 154.154L281.737 154.252L281.738 154.252L281.66 154.154ZM281.752 152.305L281.672 152.401L281.677 152.405L281.752 152.305ZM280.257 151.75L280.285 151.628L280.257 151.75ZM278.547 150.995L278.629 150.9L278.626 150.898L278.547 150.995ZM278.67 148.206L278.741 148.309L278.742 148.308L278.67 148.206ZM282.892 148.206L283.012 148.241L283.045 148.13L282.937 148.089L282.892 148.206ZM282.677 148.93L282.638 149.049L282.76 149.089L282.797 148.966L282.677 148.93ZM279.302 148.776L279.238 148.669L279.233 148.672L279.302 148.776ZM279.24 150.425L279.167 150.526L279.168 150.527L279.24 150.425ZM280.828 151.01L280.858 150.889L280.828 151.01ZM282.492 151.766L282.406 151.857L282.408 151.858L282.492 151.766ZM282.322 154.724L282.241 154.629L282.24 154.63L282.322 154.724ZM277.944 154.832L278.144 154.03L277.902 153.97L277.701 154.771L277.944 154.832ZM277.983 154.119C279.004 154.459 279.805 154.633 280.381 154.633V154.383C279.847 154.383 279.076 154.219 278.062 153.881L277.983 154.119ZM280.381 154.633C280.951 154.633 281.409 154.512 281.737 154.252L281.582 154.056C281.314 154.268 280.92 154.383 280.381 154.383V154.633ZM281.738 154.252C282.076 153.981 282.247 153.621 282.247 153.183H281.997C281.997 153.547 281.86 153.834 281.582 154.056L281.738 154.252ZM282.247 153.183C282.247 152.756 282.114 152.42 281.827 152.205L281.677 152.405C281.883 152.559 281.997 152.809 281.997 153.183H282.247ZM281.832 152.208C281.698 152.098 281.499 151.997 281.245 151.903C280.989 151.808 280.669 151.716 280.285 151.628L280.229 151.872C280.606 151.959 280.915 152.047 281.158 152.137C281.402 152.228 281.57 152.317 281.673 152.401L281.832 152.208ZM280.285 151.628C279.535 151.456 278.987 151.21 278.629 150.9L278.465 151.09C278.867 151.437 279.459 151.695 280.229 151.872L280.285 151.628ZM278.626 150.898C278.282 150.619 278.102 150.197 278.102 149.608H277.852C277.852 150.252 278.051 150.754 278.468 151.092L278.626 150.898ZM278.102 149.608C278.102 149.028 278.316 148.601 278.741 148.309L278.599 148.103C278.099 148.447 277.852 148.955 277.852 149.608H278.102ZM278.742 148.308C279.188 147.998 279.767 147.838 280.489 147.838V147.588C279.731 147.588 279.098 147.756 278.599 148.103L278.742 148.308ZM280.489 147.838C281.21 147.838 281.996 147.998 282.848 148.323L282.937 148.089C282.063 147.756 281.247 147.588 280.489 147.588V147.838ZM282.773 148.17L282.557 148.894L282.797 148.966L283.012 148.241L282.773 148.17ZM282.716 148.811C281.838 148.522 281.119 148.374 280.566 148.374V148.624C281.08 148.624 281.769 148.763 282.638 149.049L282.716 148.811ZM280.566 148.374C280.019 148.374 279.573 148.468 279.238 148.669L279.366 148.883C279.648 148.714 280.044 148.624 280.566 148.624V148.374ZM279.233 148.672C278.892 148.899 278.715 149.214 278.715 149.608H278.965C278.965 149.304 279.095 149.064 279.371 148.88L279.233 148.672ZM278.715 149.608C278.715 149.995 278.865 150.306 279.167 150.526L279.314 150.324C279.081 150.154 278.965 149.92 278.965 149.608H278.715ZM279.168 150.527C279.467 150.737 280.016 150.936 280.797 151.132L280.858 150.889C280.077 150.694 279.569 150.503 279.312 150.323L279.168 150.527ZM280.797 151.132C281.571 151.325 282.101 151.57 282.406 151.857L282.577 151.674C282.225 151.344 281.645 151.086 280.858 150.889L280.797 151.132ZM282.408 151.858C282.7 152.123 282.86 152.555 282.86 153.183H283.11C283.11 152.517 282.941 152.004 282.576 151.673L282.408 151.858ZM282.86 153.183C282.86 153.799 282.652 154.276 282.241 154.629L282.404 154.819C282.876 154.412 283.11 153.862 283.11 153.183H282.86ZM282.24 154.63C281.839 154.984 281.256 155.169 280.473 155.169V155.419C281.293 155.419 281.943 155.225 282.405 154.818L282.24 154.63ZM280.473 155.169C279.689 155.169 278.819 155.008 277.863 154.683L277.782 154.92C278.758 155.252 279.655 155.419 280.473 155.419V155.169Z" fill="#090812"></path> <path d="M95.6634 73.2265C95.6634 70.7426 95.981 68.9713 96.6161 67.9128C97.2512 66.8543 98.2814 66.3251 99.7069 66.3251C101.146 66.3251 102.184 66.8543 102.819 67.9128C103.454 68.9713 103.772 70.7426 103.772 73.2265C103.772 75.6963 103.454 77.4676 102.819 78.5402C102.184 79.6128 101.146 80.1491 99.7069 80.1491C98.2814 80.1491 97.2512 79.6128 96.6161 78.5402C95.981 77.4676 95.6634 75.6963 95.6634 73.2265ZM97.5899 77.6934C97.9851 78.5966 98.6907 79.0482 99.7069 79.0482C100.723 79.0482 101.429 78.5966 101.824 77.6934C102.219 76.7901 102.417 75.2941 102.417 73.2053C102.417 71.1024 102.226 69.6135 101.845 68.7385C101.464 67.8634 100.758 67.4259 99.728 67.4259C98.6978 67.4259 97.9851 67.8705 97.5899 68.7596C97.2088 69.6347 97.0183 71.1166 97.0183 73.2053C97.0183 75.2941 97.2088 76.7901 97.5899 77.6934ZM114.632 79.9586H106.693V78.8789H110.313V67.8705L106.82 69.4794L106.333 68.3574L110.44 66.5156H111.562V78.8789H114.632V79.9586ZM125.217 79.9586H117.278V78.8789H120.898V67.8705L117.405 69.4794L116.918 68.3574L121.025 66.5156H122.147V78.8789H125.217V79.9586ZM127.418 73.2265C127.418 70.7426 127.736 68.9713 128.371 67.9128C129.006 66.8543 130.036 66.3251 131.462 66.3251C132.901 66.3251 133.939 66.8543 134.574 67.9128C135.209 68.9713 135.527 70.7426 135.527 73.2265C135.527 75.6963 135.209 77.4676 134.574 78.5402C133.939 79.6128 132.901 80.1491 131.462 80.1491C130.036 80.1491 129.006 79.6128 128.371 78.5402C127.736 77.4676 127.418 75.6963 127.418 73.2265ZM129.345 77.6934C129.74 78.5966 130.446 79.0482 131.462 79.0482C132.478 79.0482 133.184 78.5966 133.579 77.6934C133.974 76.7901 134.172 75.2941 134.172 73.2053C134.172 71.1024 133.981 69.6135 133.6 68.7385C133.219 67.8634 132.513 67.4259 131.483 67.4259C130.453 67.4259 129.74 67.8705 129.345 68.7596C128.964 69.6347 128.773 71.1166 128.773 73.2053C128.773 75.2941 128.964 76.7901 129.345 77.6934ZM138.003 73.2265C138.003 70.7426 138.321 68.9713 138.956 67.9128C139.591 66.8543 140.621 66.3251 142.047 66.3251C143.486 66.3251 144.524 66.8543 145.159 67.9128C145.794 68.9713 146.112 70.7426 146.112 73.2265C146.112 75.6963 145.794 77.4676 145.159 78.5402C144.524 79.6128 143.486 80.1491 142.047 80.1491C140.621 80.1491 139.591 79.6128 138.956 78.5402C138.321 77.4676 138.003 75.6963 138.003 73.2265ZM139.93 77.6934C140.325 78.5966 141.031 79.0482 142.047 79.0482C143.063 79.0482 143.769 78.5966 144.164 77.6934C144.559 76.7901 144.757 75.2941 144.757 73.2053C144.757 71.1024 144.566 69.6135 144.185 68.7385C143.804 67.8634 143.098 67.4259 142.068 67.4259C141.038 67.4259 140.325 67.8705 139.93 68.7596C139.549 69.6347 139.358 71.1166 139.358 73.2053C139.358 75.2941 139.549 76.7901 139.93 77.6934ZM156.972 79.9586H149.033V78.8789H152.653V67.8705L149.16 69.4794L148.673 68.3574L152.78 66.5156H153.902V78.8789H156.972V79.9586ZM159.173 73.2265C159.173 70.7426 159.491 68.9713 160.126 67.9128C160.761 66.8543 161.791 66.3251 163.217 66.3251C164.656 66.3251 165.694 66.8543 166.329 67.9128C166.964 68.9713 167.282 70.7426 167.282 73.2265C167.282 75.6963 166.964 77.4676 166.329 78.5402C165.694 79.6128 164.656 80.1491 163.217 80.1491C161.791 80.1491 160.761 79.6128 160.126 78.5402C159.491 77.4676 159.173 75.6963 159.173 73.2265ZM161.1 77.6934C161.495 78.5966 162.201 79.0482 163.217 79.0482C164.233 79.0482 164.939 78.5966 165.334 77.6934C165.729 76.7901 165.927 75.2941 165.927 73.2053C165.927 71.1024 165.736 69.6135 165.355 68.7385C164.974 67.8634 164.268 67.4259 163.238 67.4259C162.208 67.4259 161.495 67.8705 161.1 68.7596C160.719 69.6347 160.528 71.1166 160.528 73.2053C160.528 75.2941 160.719 76.7901 161.1 77.6934ZM169.758 73.2265C169.758 70.7426 170.076 68.9713 170.711 67.9128C171.346 66.8543 172.376 66.3251 173.802 66.3251C175.241 66.3251 176.279 66.8543 176.914 67.9128C177.549 68.9713 177.867 70.7426 177.867 73.2265C177.867 75.6963 177.549 77.4676 176.914 78.5402C176.279 79.6128 175.241 80.1491 173.802 80.1491C172.376 80.1491 171.346 79.6128 170.711 78.5402C170.076 77.4676 169.758 75.6963 169.758 73.2265ZM171.685 77.6934C172.08 78.5966 172.786 79.0482 173.802 79.0482C174.818 79.0482 175.524 78.5966 175.919 77.6934C176.314 76.7901 176.512 75.2941 176.512 73.2053C176.512 71.1024 176.321 69.6135 175.94 68.7385C175.559 67.8634 174.853 67.4259 173.823 67.4259C172.793 67.4259 172.08 67.8705 171.685 68.7596C171.304 69.6347 171.113 71.1166 171.113 73.2053C171.113 75.2941 171.304 76.7901 171.685 77.6934ZM188.727 79.9586H180.788V78.8789H184.408V67.8705L180.915 69.4794L180.428 68.3574L184.535 66.5156H185.657V78.8789H188.727V79.9586ZM190.928 73.2265C190.928 70.7426 191.246 68.9713 191.881 67.9128C192.516 66.8543 193.546 66.3251 194.972 66.3251C196.411 66.3251 197.449 66.8543 198.084 67.9128C198.719 68.9713 199.037 70.7426 199.037 73.2265C199.037 75.6963 198.719 77.4676 198.084 78.5402C197.449 79.6128 196.411 80.1491 194.972 80.1491C193.546 80.1491 192.516 79.6128 191.881 78.5402C191.246 77.4676 190.928 75.6963 190.928 73.2265ZM192.855 77.6934C193.25 78.5966 193.956 79.0482 194.972 79.0482C195.988 79.0482 196.694 78.5966 197.089 77.6934C197.484 76.7901 197.682 75.2941 197.682 73.2053C197.682 71.1024 197.491 69.6135 197.11 68.7385C196.729 67.8634 196.023 67.4259 194.993 67.4259C193.963 67.4259 193.25 67.8705 192.855 68.7596C192.474 69.6347 192.283 71.1166 192.283 73.2053C192.283 75.2941 192.474 76.7901 192.855 77.6934ZM209.897 79.9586H201.958V78.8789H205.578V67.8705L202.085 69.4794L201.598 68.3574L205.705 66.5156H206.827V78.8789H209.897V79.9586ZM212.098 73.2265C212.098 70.7426 212.416 68.9713 213.051 67.9128C213.686 66.8543 214.716 66.3251 216.142 66.3251C217.581 66.3251 218.619 66.8543 219.254 67.9128C219.889 68.9713 220.207 70.7426 220.207 73.2265C220.207 75.6963 219.889 77.4676 219.254 78.5402C218.619 79.6128 217.581 80.1491 216.142 80.1491C214.716 80.1491 213.686 79.6128 213.051 78.5402C212.416 77.4676 212.098 75.6963 212.098 73.2265ZM214.025 77.6934C214.42 78.5966 215.126 79.0482 216.142 79.0482C217.158 79.0482 217.864 78.5966 218.259 77.6934C218.654 76.7901 218.852 75.2941 218.852 73.2053C218.852 71.1024 218.661 69.6135 218.28 68.7385C217.899 67.8634 217.193 67.4259 216.163 67.4259C215.133 67.4259 214.42 67.8705 214.025 68.7596C213.644 69.6347 213.453 71.1166 213.453 73.2053C213.453 75.2941 213.644 76.7901 214.025 77.6934ZM231.067 79.9586H223.128V78.8789H226.748V67.8705L223.255 69.4794L222.768 68.3574L226.875 66.5156H227.997V78.8789H231.067V79.9586Z" fill="black"></path> <path d="M96.6161 67.9128L96.7232 67.9771L96.6161 67.9128ZM102.819 67.9128L102.712 67.9771L102.819 67.9128ZM102.819 78.5402L102.926 78.6039L102.819 78.5402ZM96.6161 78.5402L96.7236 78.4765L96.6161 78.5402ZM97.5899 77.6934L97.4747 77.742L97.4754 77.7435L97.5899 77.6934ZM101.824 77.6934L101.709 77.6433L101.824 77.6934ZM101.845 68.7385L101.96 68.6885L101.845 68.7385ZM97.5899 68.7596L97.4756 68.7089L97.4753 68.7097L97.5899 68.7596ZM95.7884 73.2265C95.7884 70.7465 96.1067 69.0048 96.7232 67.9771L96.5089 67.8485C95.8553 68.9379 95.5384 70.7386 95.5384 73.2265H95.7884ZM96.7232 67.9771C97.3319 66.9627 98.3173 66.4501 99.7069 66.4501V66.2001C98.2456 66.2001 97.1704 66.7459 96.5089 67.8485L96.7232 67.9771ZM99.7069 66.4501C101.111 66.4501 102.103 66.9631 102.712 67.9771L102.926 67.8485C102.264 66.7455 101.182 66.2001 99.7069 66.2001V66.4501ZM102.712 67.9771C103.328 69.0048 103.647 70.7465 103.647 73.2265H103.897C103.897 70.7386 103.58 68.9379 102.926 67.8485L102.712 67.9771ZM103.647 73.2265C103.647 75.692 103.328 77.4343 102.711 78.4765L102.926 78.6039C103.58 77.5008 103.897 75.7007 103.897 73.2265H103.647ZM102.711 78.4765C102.103 79.5046 101.11 80.0241 99.7069 80.0241V80.2741C101.182 80.2741 102.265 79.721 102.926 78.6039L102.711 78.4765ZM99.7069 80.0241C98.318 80.0241 97.3326 79.505 96.7236 78.4765L96.5085 78.6039C97.1697 79.7206 98.2448 80.2741 99.7069 80.2741V80.0241ZM96.7236 78.4765C96.1065 77.4343 95.7884 75.692 95.7884 73.2265H95.5384C95.5384 75.7007 95.8554 77.5008 96.5085 78.6039L96.7236 78.4765ZM97.4754 77.7435C97.6811 78.2137 97.971 78.5735 98.3481 78.8148C98.725 79.056 99.18 79.1732 99.7069 79.1732V78.9232C99.2176 78.9232 98.8117 78.8147 98.4829 78.6042C98.1543 78.394 97.8939 78.0763 97.7044 77.6433L97.4754 77.7435ZM99.7069 79.1732C100.234 79.1732 100.689 79.056 101.066 78.8148C101.443 78.5735 101.733 78.2137 101.938 77.7435L101.709 77.6433C101.52 78.0763 101.259 78.394 100.931 78.6042C100.602 78.8147 100.196 78.9232 99.7069 78.9232V79.1732ZM101.938 77.7435C102.345 76.8148 102.542 75.2963 102.542 73.2053H102.292C102.292 75.2919 102.093 76.7654 101.709 77.6433L101.938 77.7435ZM102.542 73.2053C102.542 71.101 102.352 69.5892 101.96 68.6885L101.73 68.7884C102.1 69.6378 102.292 71.1038 102.292 73.2053H102.542ZM101.96 68.6885C101.761 68.2313 101.473 67.8819 101.096 67.6478C100.719 67.4141 100.261 67.3009 99.728 67.3009V67.5509C100.225 67.5509 100.635 67.6564 100.964 67.8603C101.292 68.0637 101.548 68.3706 101.73 68.7884L101.96 68.6885ZM99.728 67.3009C99.1948 67.3009 98.7349 67.4161 98.3546 67.6533C97.9739 67.8908 97.6817 68.2452 97.4757 68.7089L97.7041 68.8104C97.8932 68.3849 98.155 68.0725 98.487 67.8654C98.8194 67.658 99.231 67.5509 99.728 67.5509V67.3009ZM97.4753 68.7097C97.0831 69.6103 96.8933 71.115 96.8933 73.2053H97.1433C97.1433 71.1181 97.3346 69.659 97.7045 68.8095L97.4753 68.7097ZM96.8933 73.2053C96.8933 75.2962 97.0832 76.814 97.4747 77.742L97.705 77.6448C97.3344 76.7663 97.1433 75.292 97.1433 73.2053H96.8933ZM114.632 79.9586V80.0836H114.757V79.9586H114.632ZM106.693 79.9586H106.568V80.0836H106.693V79.9586ZM106.693 78.8789V78.7539H106.568V78.8789H106.693ZM110.313 78.8789V79.0039H110.438V78.8789H110.313ZM110.313 67.8705H110.438V67.6753L110.261 67.757L110.313 67.8705ZM106.82 69.4794L106.705 69.5292L106.756 69.6464L106.872 69.5929L106.82 69.4794ZM106.333 68.3574L106.282 68.2433L106.169 68.2939L106.218 68.4072L106.333 68.3574ZM110.44 66.5156V66.3906H110.413L110.389 66.4015L110.44 66.5156ZM111.562 66.5156H111.687V66.3906H111.562V66.5156ZM111.562 78.8789H111.437V79.0039H111.562V78.8789ZM114.632 78.8789H114.757V78.7539H114.632V78.8789ZM114.632 79.8336H106.693V80.0836H114.632V79.8336ZM106.818 79.9586V78.8789H106.568V79.9586H106.818ZM106.693 79.0039H110.313V78.7539H106.693V79.0039ZM110.438 78.8789V67.8705H110.188V78.8789H110.438ZM110.261 67.757L106.768 69.3659L106.872 69.5929L110.365 67.984L110.261 67.757ZM106.935 69.4296L106.448 68.3076L106.218 68.4072L106.705 69.5292L106.935 69.4296ZM106.384 68.4715L110.491 66.6297L110.389 66.4015L106.282 68.2433L106.384 68.4715ZM110.44 66.6406H111.562V66.3906H110.44V66.6406ZM111.437 66.5156V78.8789H111.687V66.5156H111.437ZM111.562 79.0039H114.632V78.7539H111.562V79.0039ZM114.507 78.8789V79.9586H114.757V78.8789H114.507ZM125.217 79.9586V80.0836H125.342V79.9586H125.217ZM117.278 79.9586H117.153V80.0836H117.278V79.9586ZM117.278 78.8789V78.7539H117.153V78.8789H117.278ZM120.898 78.8789V79.0039H121.023V78.8789H120.898ZM120.898 67.8705H121.023V67.6753L120.846 67.757L120.898 67.8705ZM117.405 69.4794L117.29 69.5292L117.341 69.6464L117.457 69.5929L117.405 69.4794ZM116.918 68.3574L116.867 68.2433L116.754 68.2939L116.803 68.4072L116.918 68.3574ZM121.025 66.5156V66.3906H120.998L120.974 66.4015L121.025 66.5156ZM122.147 66.5156H122.272V66.3906H122.147V66.5156ZM122.147 78.8789H122.022V79.0039H122.147V78.8789ZM125.217 78.8789H125.342V78.7539H125.217V78.8789ZM125.217 79.8336H117.278V80.0836H125.217V79.8336ZM117.403 79.9586V78.8789H117.153V79.9586H117.403ZM117.278 79.0039H120.898V78.7539H117.278V79.0039ZM121.023 78.8789V67.8705H120.773V78.8789H121.023ZM120.846 67.757L117.353 69.3659L117.457 69.5929L120.95 67.984L120.846 67.757ZM117.52 69.4296L117.033 68.3076L116.803 68.4072L117.29 69.5292L117.52 69.4296ZM116.969 68.4715L121.076 66.6297L120.974 66.4015L116.867 68.2433L116.969 68.4715ZM121.025 66.6406H122.147V66.3906H121.025V66.6406ZM122.022 66.5156V78.8789H122.272V66.5156H122.022ZM122.147 79.0039H125.217V78.7539H122.147V79.0039ZM125.092 78.8789V79.9586H125.342V78.8789H125.092ZM128.371 67.9128L128.478 67.9771L128.371 67.9128ZM134.574 67.9128L134.467 67.9771L134.574 67.9128ZM134.574 78.5402L134.681 78.6039L134.574 78.5402ZM128.371 78.5402L128.479 78.4765L128.371 78.5402ZM129.345 77.6934L129.23 77.742L129.23 77.7435L129.345 77.6934ZM133.579 77.6934L133.464 77.6433L133.579 77.6934ZM133.6 68.7385L133.715 68.6885L133.6 68.7385ZM129.345 68.7596L129.231 68.7089L129.23 68.7097L129.345 68.7596ZM127.543 73.2265C127.543 70.7465 127.862 69.0048 128.478 67.9771L128.264 67.8485C127.61 68.9379 127.293 70.7386 127.293 73.2265H127.543ZM128.478 67.9771C129.087 66.9627 130.072 66.4501 131.462 66.4501V66.2001C130.001 66.2001 128.925 66.7459 128.264 67.8485L128.478 67.9771ZM131.462 66.4501C132.866 66.4501 133.858 66.9631 134.467 67.9771L134.681 67.8485C134.019 66.7455 132.937 66.2001 131.462 66.2001V66.4501ZM134.467 67.9771C135.083 69.0048 135.402 70.7465 135.402 73.2265H135.652C135.652 70.7386 135.335 68.9379 134.681 67.8485L134.467 67.9771ZM135.402 73.2265C135.402 75.692 135.083 77.4343 134.466 78.4765L134.681 78.6039C135.335 77.5008 135.652 75.7007 135.652 73.2265H135.402ZM134.466 78.4765C133.858 79.5046 132.865 80.0241 131.462 80.0241V80.2741C132.937 80.2741 134.02 79.721 134.681 78.6039L134.466 78.4765ZM131.462 80.0241C130.073 80.0241 129.088 79.505 128.479 78.4765L128.264 78.6039C128.925 79.7206 130 80.2741 131.462 80.2741V80.0241ZM128.479 78.4765C127.862 77.4343 127.543 75.692 127.543 73.2265H127.293C127.293 75.7007 127.61 77.5008 128.264 78.6039L128.479 78.4765ZM129.23 77.7435C129.436 78.2137 129.726 78.5735 130.103 78.8148C130.48 79.056 130.935 79.1732 131.462 79.1732V78.9232C130.973 78.9232 130.567 78.8147 130.238 78.6042C129.909 78.394 129.649 78.0763 129.459 77.6433L129.23 77.7435ZM131.462 79.1732C131.989 79.1732 132.444 79.056 132.821 78.8148C133.198 78.5735 133.488 78.2137 133.693 77.7435L133.464 77.6433C133.275 78.0763 133.014 78.394 132.686 78.6042C132.357 78.8147 131.951 78.9232 131.462 78.9232V79.1732ZM133.693 77.7435C134.1 76.8148 134.297 75.2963 134.297 73.2053H134.047C134.047 75.2919 133.848 76.7654 133.464 77.6433L133.693 77.7435ZM134.297 73.2053C134.297 71.101 134.107 69.5892 133.715 68.6885L133.485 68.7884C133.855 69.6378 134.047 71.1038 134.047 73.2053H134.297ZM133.715 68.6885C133.516 68.2313 133.228 67.8819 132.851 67.6478C132.474 67.4141 132.016 67.3009 131.483 67.3009V67.5509C131.98 67.5509 132.39 67.6564 132.719 67.8603C133.047 68.0637 133.303 68.3706 133.485 68.7884L133.715 68.6885ZM131.483 67.3009C130.95 67.3009 130.49 67.4161 130.11 67.6533C129.729 67.8908 129.437 68.2452 129.231 68.7089L129.459 68.8104C129.648 68.3849 129.91 68.0725 130.242 67.8654C130.574 67.658 130.986 67.5509 131.483 67.5509V67.3009ZM129.23 68.7097C128.838 69.6103 128.648 71.115 128.648 73.2053H128.898C128.898 71.1181 129.09 69.659 129.459 68.8095L129.23 68.7097ZM128.648 73.2053C128.648 75.2962 128.838 76.814 129.23 77.742L129.46 77.6448C129.089 76.7663 128.898 75.292 128.898 73.2053H128.648ZM138.956 67.9128L139.063 67.9771L138.956 67.9128ZM145.159 67.9128L145.052 67.9771L145.159 67.9128ZM145.159 78.5402L145.266 78.6039L145.159 78.5402ZM138.956 78.5402L139.064 78.4765L138.956 78.5402ZM139.93 77.6934L139.815 77.742L139.815 77.7435L139.93 77.6934ZM144.164 77.6934L144.049 77.6433L144.164 77.6934ZM144.185 68.7385L144.3 68.6885L144.185 68.7385ZM139.93 68.7596L139.816 68.7089L139.815 68.7097L139.93 68.7596ZM138.128 73.2265C138.128 70.7465 138.447 69.0048 139.063 67.9771L138.849 67.8485C138.195 68.9379 137.878 70.7386 137.878 73.2265H138.128ZM139.063 67.9771C139.672 66.9627 140.657 66.4501 142.047 66.4501V66.2001C140.586 66.2001 139.51 66.7459 138.849 67.8485L139.063 67.9771ZM142.047 66.4501C143.451 66.4501 144.443 66.9631 145.052 67.9771L145.266 67.8485C144.604 66.7455 143.522 66.2001 142.047 66.2001V66.4501ZM145.052 67.9771C145.668 69.0048 145.987 70.7465 145.987 73.2265H146.237C146.237 70.7386 145.92 68.9379 145.266 67.8485L145.052 67.9771ZM145.987 73.2265C145.987 75.692 145.668 77.4343 145.051 78.4765L145.266 78.6039C145.92 77.5008 146.237 75.7007 146.237 73.2265H145.987ZM145.051 78.4765C144.443 79.5046 143.45 80.0241 142.047 80.0241V80.2741C143.522 80.2741 144.605 79.721 145.266 78.6039L145.051 78.4765ZM142.047 80.0241C140.658 80.0241 139.673 79.505 139.064 78.4765L138.848 78.6039C139.51 79.7206 140.585 80.2741 142.047 80.2741V80.0241ZM139.064 78.4765C138.447 77.4343 138.128 75.692 138.128 73.2265H137.878C137.878 75.7007 138.195 77.5008 138.848 78.6039L139.064 78.4765ZM139.815 77.7435C140.021 78.2137 140.311 78.5735 140.688 78.8148C141.065 79.056 141.52 79.1732 142.047 79.1732V78.9232C141.558 78.9232 141.152 78.8147 140.823 78.6042C140.494 78.394 140.234 78.0763 140.044 77.6433L139.815 77.7435ZM142.047 79.1732C142.574 79.1732 143.029 79.056 143.406 78.8148C143.783 78.5735 144.073 78.2137 144.278 77.7435L144.049 77.6433C143.86 78.0763 143.599 78.394 143.271 78.6042C142.942 78.8147 142.536 78.9232 142.047 78.9232V79.1732ZM144.278 77.7435C144.685 76.8148 144.882 75.2963 144.882 73.2053H144.632C144.632 75.2919 144.433 76.7654 144.049 77.6433L144.278 77.7435ZM144.882 73.2053C144.882 71.101 144.692 69.5892 144.3 68.6885L144.07 68.7884C144.44 69.6378 144.632 71.1038 144.632 73.2053H144.882ZM144.3 68.6885C144.101 68.2313 143.813 67.8819 143.436 67.6478C143.059 67.4141 142.601 67.3009 142.068 67.3009V67.5509C142.565 67.5509 142.975 67.6564 143.304 67.8603C143.632 68.0637 143.888 68.3706 144.07 68.7884L144.3 68.6885ZM142.068 67.3009C141.535 67.3009 141.075 67.4161 140.695 67.6533C140.314 67.8908 140.022 68.2452 139.816 68.7089L140.044 68.8104C140.233 68.3849 140.495 68.0725 140.827 67.8654C141.159 67.658 141.571 67.5509 142.068 67.5509V67.3009ZM139.815 68.7097C139.423 69.6103 139.233 71.115 139.233 73.2053H139.483C139.483 71.1181 139.675 69.659 140.044 68.8095L139.815 68.7097ZM139.233 73.2053C139.233 75.2962 139.423 76.814 139.815 77.742L140.045 77.6448C139.674 76.7663 139.483 75.292 139.483 73.2053H139.233ZM156.972 79.9586V80.0836H157.097V79.9586H156.972ZM149.033 79.9586H148.908V80.0836H149.033V79.9586ZM149.033 78.8789V78.7539H148.908V78.8789H149.033ZM152.653 78.8789V79.0039H152.778V78.8789H152.653ZM152.653 67.8705H152.778V67.6753L152.601 67.757L152.653 67.8705ZM149.16 69.4794L149.045 69.5292L149.096 69.6464L149.212 69.5929L149.16 69.4794ZM148.673 68.3574L148.622 68.2433L148.509 68.2939L148.558 68.4072L148.673 68.3574ZM152.78 66.5156V66.3906H152.753L152.729 66.4015L152.78 66.5156ZM153.902 66.5156H154.027V66.3906H153.902V66.5156ZM153.902 78.8789H153.777V79.0039H153.902V78.8789ZM156.972 78.8789H157.097V78.7539H156.972V78.8789ZM156.972 79.8336H149.033V80.0836H156.972V79.8336ZM149.158 79.9586V78.8789H148.908V79.9586H149.158ZM149.033 79.0039H152.653V78.7539H149.033V79.0039ZM152.778 78.8789V67.8705H152.528V78.8789H152.778ZM152.601 67.757L149.108 69.3659L149.212 69.5929L152.705 67.984L152.601 67.757ZM149.275 69.4296L148.788 68.3076L148.558 68.4072L149.045 69.5292L149.275 69.4296ZM148.724 68.4715L152.831 66.6297L152.729 66.4015L148.622 68.2433L148.724 68.4715ZM152.78 66.6406H153.902V66.3906H152.78V66.6406ZM153.777 66.5156V78.8789H154.027V66.5156H153.777ZM153.902 79.0039H156.972V78.7539H153.902V79.0039ZM156.847 78.8789V79.9586H157.097V78.8789H156.847ZM160.126 67.9128L160.233 67.9771L160.126 67.9128ZM166.329 67.9128L166.222 67.9771L166.329 67.9128ZM166.329 78.5402L166.436 78.6039L166.329 78.5402ZM160.126 78.5402L160.234 78.4765L160.126 78.5402ZM161.1 77.6934L160.985 77.742L160.985 77.7435L161.1 77.6934ZM165.334 77.6934L165.219 77.6433L165.334 77.6934ZM165.355 68.7385L165.47 68.6885L165.355 68.7385ZM161.1 68.7596L160.986 68.7089L160.985 68.7097L161.1 68.7596ZM159.298 73.2265C159.298 70.7465 159.617 69.0048 160.233 67.9771L160.019 67.8485C159.365 68.9379 159.048 70.7386 159.048 73.2265H159.298ZM160.233 67.9771C160.842 66.9627 161.827 66.4501 163.217 66.4501V66.2001C161.756 66.2001 160.68 66.7459 160.019 67.8485L160.233 67.9771ZM163.217 66.4501C164.621 66.4501 165.613 66.9631 166.222 67.9771L166.436 67.8485C165.774 66.7455 164.692 66.2001 163.217 66.2001V66.4501ZM166.222 67.9771C166.838 69.0048 167.157 70.7465 167.157 73.2265H167.407C167.407 70.7386 167.09 68.9379 166.436 67.8485L166.222 67.9771ZM167.157 73.2265C167.157 75.692 166.838 77.4343 166.221 78.4765L166.436 78.6039C167.09 77.5008 167.407 75.7007 167.407 73.2265H167.157ZM166.221 78.4765C165.613 79.5046 164.62 80.0241 163.217 80.0241V80.2741C164.692 80.2741 165.775 79.721 166.436 78.6039L166.221 78.4765ZM163.217 80.0241C161.828 80.0241 160.843 79.505 160.234 78.4765L160.019 78.6039C160.68 79.7206 161.755 80.2741 163.217 80.2741V80.0241ZM160.234 78.4765C159.617 77.4343 159.298 75.692 159.298 73.2265H159.048C159.048 75.7007 159.365 77.5008 160.019 78.6039L160.234 78.4765ZM160.985 77.7435C161.191 78.2137 161.481 78.5735 161.858 78.8148C162.235 79.056 162.69 79.1732 163.217 79.1732V78.9232C162.728 78.9232 162.322 78.8147 161.993 78.6042C161.664 78.394 161.404 78.0763 161.214 77.6433L160.985 77.7435ZM163.217 79.1732C163.744 79.1732 164.199 79.056 164.576 78.8148C164.953 78.5735 165.243 78.2137 165.448 77.7435L165.219 77.6433C165.03 78.0763 164.769 78.394 164.441 78.6042C164.112 78.8147 163.706 78.9232 163.217 78.9232V79.1732ZM165.448 77.7435C165.855 76.8148 166.052 75.2963 166.052 73.2053H165.802C165.802 75.2919 165.603 76.7654 165.219 77.6433L165.448 77.7435ZM166.052 73.2053C166.052 71.101 165.862 69.5892 165.47 68.6885L165.24 68.7884C165.61 69.6378 165.802 71.1038 165.802 73.2053H166.052ZM165.47 68.6885C165.271 68.2313 164.983 67.8819 164.606 67.6478C164.229 67.4141 163.771 67.3009 163.238 67.3009V67.5509C163.735 67.5509 164.145 67.6564 164.474 67.8603C164.802 68.0637 165.058 68.3706 165.24 68.7884L165.47 68.6885ZM163.238 67.3009C162.705 67.3009 162.245 67.4161 161.865 67.6533C161.484 67.8908 161.192 68.2452 160.986 68.7089L161.214 68.8104C161.403 68.3849 161.665 68.0725 161.997 67.8654C162.329 67.658 162.741 67.5509 163.238 67.5509V67.3009ZM160.985 68.7097C160.593 69.6103 160.403 71.115 160.403 73.2053H160.653C160.653 71.1181 160.845 69.659 161.214 68.8095L160.985 68.7097ZM160.403 73.2053C160.403 75.2962 160.593 76.814 160.985 77.742L161.215 77.6448C160.844 76.7663 160.653 75.292 160.653 73.2053H160.403ZM170.711 67.9128L170.818 67.9771L170.711 67.9128ZM176.914 67.9128L176.807 67.9771L176.914 67.9128ZM176.914 78.5402L177.021 78.6039L176.914 78.5402ZM170.711 78.5402L170.819 78.4765L170.711 78.5402ZM171.685 77.6934L171.57 77.742L171.57 77.7435L171.685 77.6934ZM175.919 77.6934L175.804 77.6433L175.919 77.6934ZM175.94 68.7385L176.055 68.6885L175.94 68.7385ZM171.685 68.7596L171.571 68.7089L171.57 68.7097L171.685 68.7596ZM169.883 73.2265C169.883 70.7465 170.202 69.0048 170.818 67.9771L170.604 67.8485C169.95 68.9379 169.633 70.7386 169.633 73.2265H169.883ZM170.818 67.9771C171.427 66.9627 172.412 66.4501 173.802 66.4501V66.2001C172.341 66.2001 171.265 66.7459 170.604 67.8485L170.818 67.9771ZM173.802 66.4501C175.206 66.4501 176.198 66.9631 176.807 67.9771L177.021 67.8485C176.359 66.7455 175.277 66.2001 173.802 66.2001V66.4501ZM176.807 67.9771C177.423 69.0048 177.742 70.7465 177.742 73.2265H177.992C177.992 70.7386 177.675 68.9379 177.021 67.8485L176.807 67.9771ZM177.742 73.2265C177.742 75.692 177.423 77.4343 176.806 78.4765L177.021 78.6039C177.675 77.5008 177.992 75.7007 177.992 73.2265H177.742ZM176.806 78.4765C176.198 79.5046 175.205 80.0241 173.802 80.0241V80.2741C175.277 80.2741 176.36 79.721 177.021 78.6039L176.806 78.4765ZM173.802 80.0241C172.413 80.0241 171.428 79.505 170.819 78.4765L170.604 78.6039C171.265 79.7206 172.34 80.2741 173.802 80.2741V80.0241ZM170.819 78.4765C170.202 77.4343 169.883 75.692 169.883 73.2265H169.633C169.633 75.7007 169.95 77.5008 170.604 78.6039L170.819 78.4765ZM171.57 77.7435C171.776 78.2137 172.066 78.5735 172.443 78.8148C172.82 79.056 173.275 79.1732 173.802 79.1732V78.9232C173.313 78.9232 172.907 78.8147 172.578 78.6042C172.249 78.394 171.989 78.0763 171.799 77.6433L171.57 77.7435ZM173.802 79.1732C174.329 79.1732 174.784 79.056 175.161 78.8148C175.538 78.5735 175.828 78.2137 176.033 77.7435L175.804 77.6433C175.615 78.0763 175.354 78.394 175.026 78.6042C174.697 78.8147 174.291 78.9232 173.802 78.9232V79.1732ZM176.033 77.7435C176.44 76.8148 176.637 75.2963 176.637 73.2053H176.387C176.387 75.2919 176.188 76.7654 175.804 77.6433L176.033 77.7435ZM176.637 73.2053C176.637 71.101 176.447 69.5892 176.055 68.6885L175.825 68.7884C176.195 69.6378 176.387 71.1038 176.387 73.2053H176.637ZM176.055 68.6885C175.856 68.2313 175.568 67.8819 175.191 67.6478C174.814 67.4141 174.356 67.3009 173.823 67.3009V67.5509C174.32 67.5509 174.73 67.6564 175.059 67.8603C175.387 68.0637 175.643 68.3706 175.825 68.7884L176.055 68.6885ZM173.823 67.3009C173.29 67.3009 172.83 67.4161 172.45 67.6533C172.069 67.8908 171.777 68.2452 171.571 68.7089L171.799 68.8104C171.988 68.3849 172.25 68.0725 172.582 67.8654C172.914 67.658 173.326 67.5509 173.823 67.5509V67.3009ZM171.57 68.7097C171.178 69.6103 170.988 71.115 170.988 73.2053H171.238C171.238 71.1181 171.43 69.659 171.799 68.8095L171.57 68.7097ZM170.988 73.2053C170.988 75.2962 171.178 76.814 171.57 77.742L171.8 77.6448C171.429 76.7663 171.238 75.292 171.238 73.2053H170.988ZM188.727 79.9586V80.0836H188.852V79.9586H188.727ZM180.788 79.9586H180.663V80.0836H180.788V79.9586ZM180.788 78.8789V78.7539H180.663V78.8789H180.788ZM184.408 78.8789V79.0039H184.533V78.8789H184.408ZM184.408 67.8705H184.533V67.6753L184.356 67.757L184.408 67.8705ZM180.915 69.4794L180.8 69.5292L180.851 69.6464L180.967 69.5929L180.915 69.4794ZM180.428 68.3574L180.377 68.2433L180.264 68.2939L180.313 68.4072L180.428 68.3574ZM184.535 66.5156V66.3906H184.508L184.484 66.4015L184.535 66.5156ZM185.657 66.5156H185.782V66.3906H185.657V66.5156ZM185.657 78.8789H185.532V79.0039H185.657V78.8789ZM188.727 78.8789H188.852V78.7539H188.727V78.8789ZM188.727 79.8336H180.788V80.0836H188.727V79.8336ZM180.913 79.9586V78.8789H180.663V79.9586H180.913ZM180.788 79.0039H184.408V78.7539H180.788V79.0039ZM184.533 78.8789V67.8705H184.283V78.8789H184.533ZM184.356 67.757L180.863 69.3659L180.967 69.5929L184.46 67.984L184.356 67.757ZM181.03 69.4296L180.543 68.3076L180.313 68.4072L180.8 69.5292L181.03 69.4296ZM180.479 68.4715L184.586 66.6297L184.484 66.4015L180.377 68.2433L180.479 68.4715ZM184.535 66.6406H185.657V66.3906H184.535V66.6406ZM185.532 66.5156V78.8789H185.782V66.5156H185.532ZM185.657 79.0039H188.727V78.7539H185.657V79.0039ZM188.602 78.8789V79.9586H188.852V78.8789H188.602ZM191.881 67.9128L191.988 67.9771L191.881 67.9128ZM198.084 67.9128L197.977 67.9771L198.084 67.9128ZM198.084 78.5402L198.191 78.6039L198.084 78.5402ZM191.881 78.5402L191.989 78.4765L191.881 78.5402ZM192.855 77.6934L192.74 77.742L192.74 77.7435L192.855 77.6934ZM197.089 77.6934L196.974 77.6433L197.089 77.6934ZM197.11 68.7385L197.225 68.6885L197.11 68.7385ZM192.855 68.7596L192.741 68.7089L192.74 68.7097L192.855 68.7596ZM191.053 73.2265C191.053 70.7465 191.372 69.0048 191.988 67.9771L191.774 67.8485C191.12 68.9379 190.803 70.7386 190.803 73.2265H191.053ZM191.988 67.9771C192.597 66.9627 193.582 66.4501 194.972 66.4501V66.2001C193.511 66.2001 192.435 66.7459 191.774 67.8485L191.988 67.9771ZM194.972 66.4501C196.376 66.4501 197.368 66.9631 197.977 67.9771L198.191 67.8485C197.529 66.7455 196.447 66.2001 194.972 66.2001V66.4501ZM197.977 67.9771C198.593 69.0048 198.912 70.7465 198.912 73.2265H199.162C199.162 70.7386 198.845 68.9379 198.191 67.8485L197.977 67.9771ZM198.912 73.2265C198.912 75.692 198.593 77.4343 197.976 78.4765L198.191 78.6039C198.845 77.5008 199.162 75.7007 199.162 73.2265H198.912ZM197.976 78.4765C197.368 79.5046 196.375 80.0241 194.972 80.0241V80.2741C196.447 80.2741 197.53 79.721 198.191 78.6039L197.976 78.4765ZM194.972 80.0241C193.583 80.0241 192.598 79.505 191.989 78.4765L191.773 78.6039C192.435 79.7206 193.51 80.2741 194.972 80.2741V80.0241ZM191.989 78.4765C191.372 77.4343 191.053 75.692 191.053 73.2265H190.803C190.803 75.7007 191.12 77.5008 191.773 78.6039L191.989 78.4765ZM192.74 77.7435C192.946 78.2137 193.236 78.5735 193.613 78.8148C193.99 79.056 194.445 79.1732 194.972 79.1732V78.9232C194.483 78.9232 194.077 78.8147 193.748 78.6042C193.419 78.394 193.159 78.0763 192.969 77.6433L192.74 77.7435ZM194.972 79.1732C195.499 79.1732 195.954 79.056 196.331 78.8148C196.708 78.5735 196.998 78.2137 197.203 77.7435L196.974 77.6433C196.785 78.0763 196.524 78.394 196.196 78.6042C195.867 78.8147 195.461 78.9232 194.972 78.9232V79.1732ZM197.203 77.7435C197.61 76.8148 197.807 75.2963 197.807 73.2053H197.557C197.557 75.2919 197.358 76.7654 196.974 77.6433L197.203 77.7435ZM197.807 73.2053C197.807 71.101 197.617 69.5892 197.225 68.6885L196.995 68.7884C197.365 69.6378 197.557 71.1038 197.557 73.2053H197.807ZM197.225 68.6885C197.026 68.2313 196.738 67.8819 196.361 67.6478C195.984 67.4141 195.526 67.3009 194.993 67.3009V67.5509C195.49 67.5509 195.9 67.6564 196.229 67.8603C196.557 68.0637 196.813 68.3706 196.995 68.7884L197.225 68.6885ZM194.993 67.3009C194.46 67.3009 194 67.4161 193.62 67.6533C193.239 67.8908 192.947 68.2452 192.741 68.7089L192.969 68.8104C193.158 68.3849 193.42 68.0725 193.752 67.8654C194.084 67.658 194.496 67.5509 194.993 67.5509V67.3009ZM192.74 68.7097C192.348 69.6103 192.158 71.115 192.158 73.2053H192.408C192.408 71.1181 192.6 69.659 192.969 68.8095L192.74 68.7097ZM192.158 73.2053C192.158 75.2962 192.348 76.814 192.74 77.742L192.97 77.6448C192.599 76.7663 192.408 75.292 192.408 73.2053H192.158ZM209.897 79.9586V80.0836H210.022V79.9586H209.897ZM201.958 79.9586H201.833V80.0836H201.958V79.9586ZM201.958 78.8789V78.7539H201.833V78.8789H201.958ZM205.578 78.8789V79.0039H205.703V78.8789H205.578ZM205.578 67.8705H205.703V67.6753L205.526 67.757L205.578 67.8705ZM202.085 69.4794L201.97 69.5292L202.021 69.6464L202.137 69.5929L202.085 69.4794ZM201.598 68.3574L201.547 68.2433L201.434 68.2939L201.483 68.4072L201.598 68.3574ZM205.705 66.5156V66.3906H205.678L205.654 66.4015L205.705 66.5156ZM206.827 66.5156H206.952V66.3906H206.827V66.5156ZM206.827 78.8789H206.702V79.0039H206.827V78.8789ZM209.897 78.8789H210.022V78.7539H209.897V78.8789ZM209.897 79.8336H201.958V80.0836H209.897V79.8336ZM202.083 79.9586V78.8789H201.833V79.9586H202.083ZM201.958 79.0039H205.578V78.7539H201.958V79.0039ZM205.703 78.8789V67.8705H205.453V78.8789H205.703ZM205.526 67.757L202.033 69.3659L202.137 69.5929L205.63 67.984L205.526 67.757ZM202.2 69.4296L201.713 68.3076L201.483 68.4072L201.97 69.5292L202.2 69.4296ZM201.649 68.4715L205.756 66.6297L205.654 66.4015L201.547 68.2433L201.649 68.4715ZM205.705 66.6406H206.827V66.3906H205.705V66.6406ZM206.702 66.5156V78.8789H206.952V66.5156H206.702ZM206.827 79.0039H209.897V78.7539H206.827V79.0039ZM209.772 78.8789V79.9586H210.022V78.8789H209.772ZM213.051 67.9128L213.158 67.9771L213.051 67.9128ZM219.254 67.9128L219.147 67.9771L219.254 67.9128ZM219.254 78.5402L219.361 78.6039L219.254 78.5402ZM213.051 78.5402L213.159 78.4765L213.051 78.5402ZM214.025 77.6934L213.91 77.742L213.91 77.7435L214.025 77.6934ZM218.259 77.6934L218.144 77.6433L218.259 77.6934ZM218.28 68.7385L218.395 68.6885L218.28 68.7385ZM214.025 68.7596L213.911 68.7089L213.91 68.7097L214.025 68.7596ZM212.223 73.2265C212.223 70.7465 212.542 69.0048 213.158 67.9771L212.944 67.8485C212.29 68.9379 211.973 70.7386 211.973 73.2265H212.223ZM213.158 67.9771C213.767 66.9627 214.752 66.4501 216.142 66.4501V66.2001C214.681 66.2001 213.605 66.7459 212.944 67.8485L213.158 67.9771ZM216.142 66.4501C217.546 66.4501 218.538 66.9631 219.147 67.9771L219.361 67.8485C218.699 66.7455 217.617 66.2001 216.142 66.2001V66.4501ZM219.147 67.9771C219.763 69.0048 220.082 70.7465 220.082 73.2265H220.332C220.332 70.7386 220.015 68.9379 219.361 67.8485L219.147 67.9771ZM220.082 73.2265C220.082 75.692 219.763 77.4343 219.146 78.4765L219.361 78.6039C220.015 77.5008 220.332 75.7007 220.332 73.2265H220.082ZM219.146 78.4765C218.538 79.5046 217.545 80.0241 216.142 80.0241V80.2741C217.617 80.2741 218.7 79.721 219.361 78.6039L219.146 78.4765ZM216.142 80.0241C214.753 80.0241 213.768 79.505 213.159 78.4765L212.943 78.6039C213.605 79.7206 214.68 80.2741 216.142 80.2741V80.0241ZM213.159 78.4765C212.542 77.4343 212.223 75.692 212.223 73.2265H211.973C211.973 75.7007 212.29 77.5008 212.943 78.6039L213.159 78.4765ZM213.91 77.7435C214.116 78.2137 214.406 78.5735 214.783 78.8148C215.16 79.056 215.615 79.1732 216.142 79.1732V78.9232C215.653 78.9232 215.247 78.8147 214.918 78.6042C214.589 78.394 214.329 78.0763 214.139 77.6433L213.91 77.7435ZM216.142 79.1732C216.669 79.1732 217.124 79.056 217.501 78.8148C217.878 78.5735 218.168 78.2137 218.373 77.7435L218.144 77.6433C217.955 78.0763 217.694 78.394 217.366 78.6042C217.037 78.8147 216.631 78.9232 216.142 78.9232V79.1732ZM218.373 77.7435C218.78 76.8148 218.977 75.2963 218.977 73.2053H218.727C218.727 75.2919 218.528 76.7654 218.144 77.6433L218.373 77.7435ZM218.977 73.2053C218.977 71.101 218.787 69.5892 218.395 68.6885L218.165 68.7884C218.535 69.6378 218.727 71.1038 218.727 73.2053H218.977ZM218.395 68.6885C218.196 68.2313 217.908 67.8819 217.531 67.6478C217.154 67.4141 216.696 67.3009 216.163 67.3009V67.5509C216.66 67.5509 217.07 67.6564 217.399 67.8603C217.727 68.0637 217.983 68.3706 218.165 68.7884L218.395 68.6885ZM216.163 67.3009C215.63 67.3009 215.17 67.4161 214.79 67.6533C214.409 67.8908 214.117 68.2452 213.911 68.7089L214.139 68.8104C214.328 68.3849 214.59 68.0725 214.922 67.8654C215.254 67.658 215.666 67.5509 216.163 67.5509V67.3009ZM213.91 68.7097C213.518 69.6103 213.328 71.115 213.328 73.2053H213.578C213.578 71.1181 213.77 69.659 214.139 68.8095L213.91 68.7097ZM213.328 73.2053C213.328 75.2962 213.518 76.814 213.91 77.742L214.14 77.6448C213.769 76.7663 213.578 75.292 213.578 73.2053H213.328ZM231.067 79.9586V80.0836H231.192V79.9586H231.067ZM223.128 79.9586H223.003V80.0836H223.128V79.9586ZM223.128 78.8789V78.7539H223.003V78.8789H223.128ZM226.748 78.8789V79.0039H226.873V78.8789H226.748ZM226.748 67.8705H226.873V67.6753L226.696 67.757L226.748 67.8705ZM223.255 69.4794L223.14 69.5292L223.191 69.6464L223.307 69.5929L223.255 69.4794ZM222.768 68.3574L222.717 68.2433L222.604 68.2939L222.653 68.4072L222.768 68.3574ZM226.875 66.5156V66.3906H226.848L226.824 66.4015L226.875 66.5156ZM227.997 66.5156H228.122V66.3906H227.997V66.5156ZM227.997 78.8789H227.872V79.0039H227.997V78.8789ZM231.067 78.8789H231.192V78.7539H231.067V78.8789ZM231.067 79.8336H223.128V80.0836H231.067V79.8336ZM223.253 79.9586V78.8789H223.003V79.9586H223.253ZM223.128 79.0039H226.748V78.7539H223.128V79.0039ZM226.873 78.8789V67.8705H226.623V78.8789H226.873ZM226.696 67.757L223.203 69.3659L223.307 69.5929L226.8 67.984L226.696 67.757ZM223.37 69.4296L222.883 68.3076L222.653 68.4072L223.14 69.5292L223.37 69.4296ZM222.819 68.4715L226.926 66.6297L226.824 66.4015L222.717 68.2433L222.819 68.4715ZM226.875 66.6406H227.997V66.3906H226.875V66.6406ZM227.872 66.5156V78.8789H228.122V66.5156H227.872ZM227.997 79.0039H231.067V78.7539H227.997V79.0039ZM230.942 78.8789V79.9586H231.192V78.8789H230.942Z" fill="#090812"></path> <path d="M2.794 62.55L2.838 63.43C4.26067 62.7553 5.44133 62.418 6.38 62.418C7.31867 62.418 8.052 62.7407 8.58 63.386C9.12267 64.0313 9.394 64.9113 9.394 66.026V73H8.228V66.026C8.228 65.3073 8.052 64.7133 7.7 64.244C7.348 63.7893 6.82 63.562 6.116 63.562C5.412 63.562 4.31933 63.8847 2.838 64.53V73H1.672V62.55H2.794ZM12.474 67.786C12.474 66.0993 12.8187 64.7867 13.508 63.848C14.212 62.8947 15.2313 62.418 16.566 62.418C17.9007 62.418 18.8907 62.858 19.536 63.738C20.196 64.618 20.526 65.7913 20.526 67.258L20.46 68.358H13.728C13.8013 69.458 14.0947 70.3527 14.608 71.042C15.1213 71.7167 15.8253 72.054 16.72 72.054C17.6293 72.054 18.6927 71.8413 19.91 71.416L20.24 72.516C19.052 72.9707 17.9373 73.198 16.896 73.198C15.4587 73.198 14.3587 72.7213 13.596 71.768C12.848 70.8 12.474 69.4727 12.474 67.786ZM16.654 63.54C14.806 63.54 13.8307 64.7793 13.728 67.258H19.272C19.272 64.7793 18.3993 63.54 16.654 63.54ZM31.086 62.55H32.23L30.976 73H28.644L27.522 68.446H27.434L26.29 73H23.98L22.77 62.55H23.914L25.058 71.944H25.454L26.928 66.642H28.072L29.546 71.944H29.942L31.086 62.55Z" fill="white"></path> <path d="M2.794 62.55L2.91884 62.5438L2.91291 62.425H2.794V62.55ZM2.838 63.43L2.71316 63.4362L2.7225 63.6231L2.89156 63.5429L2.838 63.43ZM8.58 63.386L8.48325 63.4652L8.48433 63.4664L8.58 63.386ZM9.394 73V73.125H9.519V73H9.394ZM8.228 73H8.103V73.125H8.228V73ZM7.7 64.244L7.80001 64.169L7.79884 64.1675L7.7 64.244ZM2.838 64.53L2.78808 64.4154L2.713 64.4481V64.53H2.838ZM2.838 73V73.125H2.963V73H2.838ZM1.672 73H1.547V73.125H1.672V73ZM1.672 62.55V62.425H1.547V62.55H1.672ZM2.66916 62.5562L2.71316 63.4362L2.96284 63.4238L2.91884 62.5438L2.66916 62.5562ZM2.89156 63.5429C4.30737 62.8715 5.46835 62.543 6.38 62.543V62.293C5.41432 62.293 4.21396 62.6391 2.78444 63.3171L2.89156 63.5429ZM6.38 62.543C7.2865 62.543 7.98217 62.8527 8.48326 63.4652L8.67675 63.3068C8.12183 62.6286 7.35084 62.293 6.38 62.293V62.543ZM8.48433 63.4664C9.00269 64.0829 9.269 64.9312 9.269 66.026H9.519C9.519 64.8915 9.24265 63.9798 8.67567 63.3056L8.48433 63.4664ZM9.269 66.026V73H9.519V66.026H9.269ZM9.394 72.875H8.228V73.125H9.394V72.875ZM8.353 73V66.026H8.103V73H8.353ZM8.353 66.026C8.353 65.2865 8.1716 64.6645 7.8 64.169L7.6 64.319C7.9324 64.7622 8.103 65.3282 8.103 66.026H8.353ZM7.79884 64.1675C7.41783 63.6753 6.84904 63.437 6.116 63.437V63.687C6.79096 63.687 7.27817 63.9033 7.60116 64.3205L7.79884 64.1675ZM6.116 63.437C5.38365 63.437 4.26992 63.7698 2.78808 64.4154L2.88792 64.6446C4.36875 63.9995 5.44035 63.687 6.116 63.687V63.437ZM2.713 64.53V73H2.963V64.53H2.713ZM2.838 72.875H1.672V73.125H2.838V72.875ZM1.797 73V62.55H1.547V73H1.797ZM1.672 62.675H2.794V62.425H1.672V62.675ZM13.508 63.848L13.4074 63.7737L13.4072 63.774L13.508 63.848ZM19.536 63.738L19.4352 63.8119L19.436 63.813L19.536 63.738ZM20.526 67.258L20.651 67.2655V67.258H20.526ZM20.46 68.358V68.483H20.5777L20.5848 68.3655L20.46 68.358ZM13.728 68.358V68.233H13.5944L13.6033 68.3663L13.728 68.358ZM14.608 71.042L14.5077 71.1167L14.5085 71.1177L14.608 71.042ZM19.91 71.416L20.0297 71.3801L19.9922 71.2549L19.8688 71.298L19.91 71.416ZM20.24 72.516L20.2847 72.6327L20.3931 72.5913L20.3597 72.4801L20.24 72.516ZM13.596 71.768L13.4971 71.8444L13.4984 71.8461L13.596 71.768ZM13.728 67.258L13.6031 67.2528L13.5977 67.383H13.728V67.258ZM19.272 67.258V67.383H19.397V67.258H19.272ZM12.599 67.786C12.599 66.1145 12.9408 64.8315 13.6088 63.922L13.4072 63.774C12.6965 64.7418 12.349 66.0842 12.349 67.786H12.599ZM13.6086 63.9223C14.2858 63.0052 15.2652 62.543 16.566 62.543V62.293C15.1974 62.293 14.1382 62.7841 13.4074 63.7737L13.6086 63.9223ZM16.566 62.543C17.8708 62.543 18.8187 62.9713 19.4352 63.8119L19.6368 63.6641C18.9626 62.7447 17.9305 62.293 16.566 62.293V62.543ZM19.436 63.813C20.0751 64.6652 20.401 65.8094 20.401 67.258H20.651C20.651 65.7732 20.3169 64.5708 19.636 63.663L19.436 63.813ZM20.4012 67.2505L20.3352 68.3505L20.5848 68.3655L20.6508 67.2655L20.4012 67.2505ZM20.46 68.233H13.728V68.483H20.46V68.233ZM13.6033 68.3663C13.6778 69.4836 13.9765 70.4033 14.5077 71.1167L14.7083 70.9673C14.2128 70.3021 13.9249 69.4324 13.8527 68.3497L13.6033 68.3663ZM14.5085 71.1177C15.047 71.8254 15.7888 72.179 16.72 72.179V71.929C15.8619 71.929 15.1957 71.608 14.7075 70.9663L14.5085 71.1177ZM16.72 72.179C17.6479 72.179 18.7257 71.9622 19.9512 71.534L19.8688 71.298C18.6596 71.7205 17.6108 71.929 16.72 71.929V72.179ZM19.7903 71.4519L20.1203 72.5519L20.3597 72.4801L20.0297 71.3801L19.7903 71.4519ZM20.1953 72.3993C19.0185 72.8496 17.9191 73.073 16.896 73.073V73.323C17.9556 73.323 19.0855 73.0917 20.2847 72.6327L20.1953 72.3993ZM16.896 73.073C15.4891 73.073 14.4282 72.6082 13.6936 71.6899L13.4984 71.8461C14.2891 72.8345 15.4282 73.323 16.896 73.323V73.073ZM13.6949 71.6916C12.9692 70.7524 12.599 69.4553 12.599 67.786H12.349C12.349 69.49 12.7268 70.8476 13.4971 71.8444L13.6949 71.6916ZM16.654 63.415C15.6991 63.415 14.9539 63.737 14.4383 64.3922C13.9274 65.0413 13.6549 66.0012 13.6031 67.2528L13.8529 67.2632C13.9037 66.0361 14.1702 65.137 14.6347 64.5468C15.0945 63.9626 15.7609 63.665 16.654 63.665V63.415ZM13.728 67.383H19.272V67.133H13.728V67.383ZM19.397 67.258C19.397 66.0078 19.1776 65.0478 18.7197 64.3975C18.2562 63.7392 17.5602 63.415 16.654 63.415V63.665C17.4931 63.665 18.1062 63.9605 18.5153 64.5415C18.9301 65.1305 19.147 66.0295 19.147 67.258H19.397ZM31.086 62.55V62.425H30.9753L30.9619 62.5349L31.086 62.55ZM32.23 62.55L32.3541 62.5649L32.3709 62.425H32.23V62.55ZM30.976 73V73.125H31.0869L31.1001 73.0149L30.976 73ZM28.644 73L28.5226 73.0299L28.5461 73.125H28.644V73ZM27.522 68.446L27.6434 68.4161L27.6199 68.321H27.522V68.446ZM27.434 68.446V68.321H27.3365L27.3128 68.4155L27.434 68.446ZM26.29 73V73.125H26.3875L26.4112 73.0305L26.29 73ZM23.98 73L23.8558 73.0144L23.8686 73.125H23.98V73ZM22.77 62.55V62.425H22.6297L22.6458 62.5644L22.77 62.55ZM23.914 62.55L24.0381 62.5349L24.0247 62.425H23.914V62.55ZM25.058 71.944L24.9339 71.9591L24.9473 72.069H25.058V71.944ZM25.454 71.944V72.069H25.549L25.5744 71.9775L25.454 71.944ZM26.928 66.642V66.517H26.833L26.8076 66.6085L26.928 66.642ZM28.072 66.642L28.1924 66.6085L28.167 66.517H28.072V66.642ZM29.546 71.944L29.4256 71.9775L29.451 72.069H29.546V71.944ZM29.942 71.944V72.069H30.0527L30.0661 71.9591L29.942 71.944ZM31.086 62.675H32.23V62.425H31.086V62.675ZM32.1059 62.5351L30.8519 72.9851L31.1001 73.0149L32.3541 62.5649L32.1059 62.5351ZM30.976 72.875H28.644V73.125H30.976V72.875ZM28.7654 72.9701L27.6434 68.4161L27.4006 68.4759L28.5226 73.0299L28.7654 72.9701ZM27.522 68.321H27.434V68.571H27.522V68.321ZM27.3128 68.4155L26.1688 72.9695L26.4112 73.0305L27.5552 68.4765L27.3128 68.4155ZM26.29 72.875H23.98V73.125H26.29V72.875ZM24.1042 72.9856L22.8942 62.5356L22.6458 62.5644L23.8558 73.0144L24.1042 72.9856ZM22.77 62.675H23.914V62.425H22.77V62.675ZM23.7899 62.5651L24.9339 71.9591L25.1821 71.9289L24.0381 62.5349L23.7899 62.5651ZM25.058 72.069H25.454V71.819H25.058V72.069ZM25.5744 71.9775L27.0484 66.6755L26.8076 66.6085L25.3336 71.9105L25.5744 71.9775ZM26.928 66.767H28.072V66.517H26.928V66.767ZM27.9516 66.6755L29.4256 71.9775L29.6664 71.9105L28.1924 66.6085L27.9516 66.6755ZM29.546 72.069H29.942V71.819H29.546V72.069ZM30.0661 71.9591L31.2101 62.5651L30.9619 62.5349L29.8179 71.9289L30.0661 71.9591Z" fill="white"></path> <path d="M2.794 92.8754L2.838 93.7554C4.26067 93.0808 5.44133 92.7434 6.38 92.7434C7.31867 92.7434 8.052 93.0661 8.58 93.7114C9.12267 94.3568 9.394 95.2368 9.394 96.3514V103.325H8.228V96.3514C8.228 95.6328 8.052 95.0388 7.7 94.5694C7.348 94.1148 6.82 93.8874 6.116 93.8874C5.412 93.8874 4.31933 94.2101 2.838 94.8554V103.325H1.672V92.8754H2.794ZM12.474 98.1114C12.474 96.4248 12.8187 95.1121 13.508 94.1734C14.212 93.2201 15.2313 92.7434 16.566 92.7434C17.9007 92.7434 18.8907 93.1834 19.536 94.0634C20.196 94.9434 20.526 96.1168 20.526 97.5834L20.46 98.6834H13.728C13.8013 99.7834 14.0947 100.678 14.608 101.367C15.1213 102.042 15.8253 102.379 16.72 102.379C17.6293 102.379 18.6927 102.167 19.91 101.741L20.24 102.841C19.052 103.296 17.9373 103.523 16.896 103.523C15.4587 103.523 14.3587 103.047 13.596 102.093C12.848 101.125 12.474 99.7981 12.474 98.1114ZM16.654 93.8654C14.806 93.8654 13.8307 95.1048 13.728 97.5834H19.272C19.272 95.1048 18.3993 93.8654 16.654 93.8654ZM31.086 92.8754H32.23L30.976 103.325H28.644L27.522 98.7714H27.434L26.29 103.325H23.98L22.77 92.8754H23.914L25.058 102.269H25.454L26.928 96.9674H28.072L29.546 102.269H29.942L31.086 92.8754Z" fill="white"></path> <path d="M2.794 92.8754L2.91884 92.8692L2.91291 92.7504H2.794V92.8754ZM2.838 93.7554L2.71316 93.7617L2.7225 93.9486L2.89156 93.8684L2.838 93.7554ZM8.58 93.7114L8.48325 93.7906L8.48433 93.7919L8.58 93.7114ZM9.394 103.325V103.45H9.519V103.325H9.394ZM8.228 103.325H8.103V103.45H8.228V103.325ZM7.7 94.5694L7.80001 94.4944L7.79884 94.4929L7.7 94.5694ZM2.838 94.8554L2.78808 94.7408L2.713 94.7735V94.8554H2.838ZM2.838 103.325V103.45H2.963V103.325H2.838ZM1.672 103.325H1.547V103.45H1.672V103.325ZM1.672 92.8754V92.7504H1.547V92.8754H1.672ZM2.66916 92.8817L2.71316 93.7617L2.96284 93.7492L2.91884 92.8692L2.66916 92.8817ZM2.89156 93.8684C4.30737 93.197 5.46835 92.8684 6.38 92.8684V92.6184C5.41432 92.6184 4.21396 92.9646 2.78444 93.6425L2.89156 93.8684ZM6.38 92.8684C7.2865 92.8684 7.98217 93.1782 8.48326 93.7906L8.67675 93.6323C8.12183 92.9541 7.35084 92.6184 6.38 92.6184V92.8684ZM8.48433 93.7919C9.00269 94.4083 9.269 95.2566 9.269 96.3514H9.519C9.519 95.2169 9.24265 94.3052 8.67567 93.631L8.48433 93.7919ZM9.269 96.3514V103.325H9.519V96.3514H9.269ZM9.394 103.2H8.228V103.45H9.394V103.2ZM8.353 103.325V96.3514H8.103V103.325H8.353ZM8.353 96.3514C8.353 95.6119 8.1716 94.9899 7.8 94.4944L7.6 94.6444C7.9324 95.0876 8.103 95.6536 8.103 96.3514H8.353ZM7.79884 94.4929C7.41783 94.0008 6.84904 93.7624 6.116 93.7624V94.0124C6.79096 94.0124 7.27817 94.2288 7.60116 94.646L7.79884 94.4929ZM6.116 93.7624C5.38365 93.7624 4.26992 94.0953 2.78808 94.7408L2.88792 94.97C4.36875 94.3249 5.44035 94.0124 6.116 94.0124V93.7624ZM2.713 94.8554V103.325H2.963V94.8554H2.713ZM2.838 103.2H1.672V103.45H2.838V103.2ZM1.797 103.325V92.8754H1.547V103.325H1.797ZM1.672 93.0004H2.794V92.7504H1.672V93.0004ZM13.508 94.1734L13.4074 94.0992L13.4072 94.0995L13.508 94.1734ZM19.536 94.0634L19.4352 94.1374L19.436 94.1384L19.536 94.0634ZM20.526 97.5834L20.651 97.5909V97.5834H20.526ZM20.46 98.6834V98.8084H20.5777L20.5848 98.6909L20.46 98.6834ZM13.728 98.6834V98.5584H13.5944L13.6033 98.6918L13.728 98.6834ZM14.608 101.367L14.5077 101.442L14.5085 101.443L14.608 101.367ZM19.91 101.741L20.0297 101.706L19.9922 101.58L19.8688 101.623L19.91 101.741ZM20.24 102.841L20.2847 102.958L20.3931 102.917L20.3597 102.806L20.24 102.841ZM13.596 102.093L13.4971 102.17L13.4984 102.172L13.596 102.093ZM13.728 97.5834L13.6031 97.5783L13.5977 97.7084H13.728V97.5834ZM19.272 97.5834V97.7084H19.397V97.5834H19.272ZM12.599 98.1114C12.599 96.4399 12.9408 95.1569 13.6088 94.2474L13.4072 94.0995C12.6965 95.0673 12.349 96.4096 12.349 98.1114H12.599ZM13.6086 94.2477C14.2858 93.3306 15.2652 92.8684 16.566 92.8684V92.6184C15.1974 92.6184 14.1382 93.1096 13.4074 94.0992L13.6086 94.2477ZM16.566 92.8684C17.8708 92.8684 18.8187 93.2967 19.4352 94.1374L19.6368 93.9895C18.9626 93.0701 17.9305 92.6184 16.566 92.6184V92.8684ZM19.436 94.1384C20.0751 94.9906 20.401 96.1349 20.401 97.5834H20.651C20.651 96.0987 20.3169 94.8963 19.636 93.9884L19.436 94.1384ZM20.4012 97.576L20.3352 98.676L20.5848 98.6909L20.6508 97.5909L20.4012 97.576ZM20.46 98.5584H13.728V98.8084H20.46V98.5584ZM13.6033 98.6918C13.6778 99.809 13.9765 100.729 14.5077 101.442L14.7083 101.293C14.2128 100.628 13.9249 99.7578 13.8527 98.6751L13.6033 98.6918ZM14.5085 101.443C15.047 102.151 15.7888 102.504 16.72 102.504V102.254C15.8619 102.254 15.1957 101.933 14.7075 101.292L14.5085 101.443ZM16.72 102.504C17.6479 102.504 18.7257 102.288 19.9512 101.859L19.8688 101.623C18.6596 102.046 17.6108 102.254 16.72 102.254V102.504ZM19.7903 101.777L20.1203 102.877L20.3597 102.806L20.0297 101.706L19.7903 101.777ZM20.1953 102.725C19.0185 103.175 17.9191 103.398 16.896 103.398V103.648C17.9556 103.648 19.0855 103.417 20.2847 102.958L20.1953 102.725ZM16.896 103.398C15.4891 103.398 14.4282 102.934 13.6936 102.015L13.4984 102.172C14.2891 103.16 15.4282 103.648 16.896 103.648V103.398ZM13.6949 102.017C12.9692 101.078 12.599 99.7808 12.599 98.1114H12.349C12.349 99.8154 12.7268 101.173 13.4971 102.17L13.6949 102.017ZM16.654 93.7404C15.6991 93.7404 14.9539 94.0625 14.4383 94.7176C13.9274 95.3667 13.6549 96.3266 13.6031 97.5783L13.8529 97.5886C13.9037 96.3616 14.1702 95.4625 14.6347 94.8722C15.0945 94.2881 15.7609 93.9904 16.654 93.9904V93.7404ZM13.728 97.7084H19.272V97.4584H13.728V97.7084ZM19.397 97.5834C19.397 96.3333 19.1776 95.3733 18.7197 94.723C18.2562 94.0646 17.5602 93.7404 16.654 93.7404V93.9904C17.4931 93.9904 18.1062 94.2859 18.5153 94.8669C18.9301 95.4559 19.147 96.355 19.147 97.5834H19.397ZM31.086 92.8754V92.7504H30.9753L30.9619 92.8603L31.086 92.8754ZM32.23 92.8754L32.3541 92.8903L32.3709 92.7504H32.23V92.8754ZM30.976 103.325V103.45H31.0869L31.1001 103.34L30.976 103.325ZM28.644 103.325L28.5226 103.355L28.5461 103.45H28.644V103.325ZM27.522 98.7714L27.6434 98.7415L27.6199 98.6464H27.522V98.7714ZM27.434 98.7714V98.6464H27.3365L27.3128 98.741L27.434 98.7714ZM26.29 103.325V103.45H26.3875L26.4112 103.356L26.29 103.325ZM23.98 103.325L23.8558 103.34L23.8686 103.45H23.98V103.325ZM22.77 92.8754V92.7504H22.6297L22.6458 92.8898L22.77 92.8754ZM23.914 92.8754L24.0381 92.8603L24.0247 92.7504H23.914V92.8754ZM25.058 102.269L24.9339 102.285L24.9473 102.394H25.058V102.269ZM25.454 102.269V102.394H25.549L25.5744 102.303L25.454 102.269ZM26.928 96.9674V96.8424H26.833L26.8076 96.934L26.928 96.9674ZM28.072 96.9674L28.1924 96.934L28.167 96.8424H28.072V96.9674ZM29.546 102.269L29.4256 102.303L29.451 102.394H29.546V102.269ZM29.942 102.269V102.394H30.0527L30.0661 102.285L29.942 102.269ZM31.086 93.0004H32.23V92.7504H31.086V93.0004ZM32.1059 92.8605L30.8519 103.311L31.1001 103.34L32.3541 92.8903L32.1059 92.8605ZM30.976 103.2H28.644V103.45H30.976V103.2ZM28.7654 103.296L27.6434 98.7415L27.4006 98.8013L28.5226 103.355L28.7654 103.296ZM27.522 98.6464H27.434V98.8964H27.522V98.6464ZM27.3128 98.741L26.1688 103.295L26.4112 103.356L27.5552 98.8019L27.3128 98.741ZM26.29 103.2H23.98V103.45H26.29V103.2ZM24.1042 103.311L22.8942 92.8611L22.6458 92.8898L23.8558 103.34L24.1042 103.311ZM22.77 93.0004H23.914V92.7504H22.77V93.0004ZM23.7899 92.8905L24.9339 102.285L25.1821 102.254L24.0381 92.8603L23.7899 92.8905ZM25.058 102.394H25.454V102.144H25.058V102.394ZM25.5744 102.303L27.0484 97.0009L26.8076 96.934L25.3336 102.236L25.5744 102.303ZM26.928 97.0924H28.072V96.8424H26.928V97.0924ZM27.9516 97.0009L29.4256 102.303L29.6664 102.236L28.1924 96.934L27.9516 97.0009ZM29.546 102.394H29.942V102.144H29.546V102.394ZM30.0661 102.285L31.2101 92.8905L30.9619 92.8603L29.8179 102.254L30.0661 102.285Z" fill="white"></path> <path d="M2.794 123.201L2.838 124.081C4.26067 123.406 5.44133 123.069 6.38 123.069C7.31867 123.069 8.052 123.391 8.58 124.037C9.12267 124.682 9.394 125.562 9.394 126.677V133.651H8.228V126.677C8.228 125.958 8.052 125.364 7.7 124.895C7.348 124.44 6.82 124.213 6.116 124.213C5.412 124.213 4.31933 124.535 2.838 125.181V133.651H1.672V123.201H2.794ZM12.474 128.437C12.474 126.75 12.8187 125.437 13.508 124.499C14.212 123.545 15.2313 123.069 16.566 123.069C17.9007 123.069 18.8907 123.509 19.536 124.389C20.196 125.269 20.526 126.442 20.526 127.909L20.46 129.009H13.728C13.8013 130.109 14.0947 131.003 14.608 131.693C15.1213 132.367 15.8253 132.705 16.72 132.705C17.6293 132.705 18.6927 132.492 19.91 132.067L20.24 133.167C19.052 133.621 17.9373 133.849 16.896 133.849C15.4587 133.849 14.3587 133.372 13.596 132.419C12.848 131.451 12.474 130.123 12.474 128.437ZM16.654 124.191C14.806 124.191 13.8307 125.43 13.728 127.909H19.272C19.272 125.43 18.3993 124.191 16.654 124.191ZM31.086 123.201H32.23L30.976 133.651H28.644L27.522 129.097H27.434L26.29 133.651H23.98L22.77 123.201H23.914L25.058 132.595H25.454L26.928 127.293H28.072L29.546 132.595H29.942L31.086 123.201Z" fill="white"></path> <path d="M2.794 123.201L2.91884 123.195L2.91291 123.076H2.794V123.201ZM2.838 124.081L2.71316 124.087L2.7225 124.274L2.89156 124.194L2.838 124.081ZM8.58 124.037L8.48325 124.116L8.48433 124.117L8.58 124.037ZM9.394 133.651V133.776H9.519V133.651H9.394ZM8.228 133.651H8.103V133.776H8.228V133.651ZM7.7 124.895L7.80001 124.82L7.79884 124.818L7.7 124.895ZM2.838 125.181L2.78808 125.066L2.713 125.099V125.181H2.838ZM2.838 133.651V133.776H2.963V133.651H2.838ZM1.672 133.651H1.547V133.776H1.672V133.651ZM1.672 123.201V123.076H1.547V123.201H1.672ZM2.66916 123.207L2.71316 124.087L2.96284 124.075L2.91884 123.195L2.66916 123.207ZM2.89156 124.194C4.30737 123.522 5.46835 123.194 6.38 123.194V122.944C5.41432 122.944 4.21396 123.29 2.78444 123.968L2.89156 124.194ZM6.38 123.194C7.2865 123.194 7.98217 123.503 8.48326 124.116L8.67675 123.958C8.12183 123.279 7.35084 122.944 6.38 122.944V123.194ZM8.48433 124.117C9.00269 124.734 9.269 125.582 9.269 126.677H9.519C9.519 125.542 9.24265 124.631 8.67567 123.956L8.48433 124.117ZM9.269 126.677V133.651H9.519V126.677H9.269ZM9.394 133.526H8.228V133.776H9.394V133.526ZM8.353 133.651V126.677H8.103V133.651H8.353ZM8.353 126.677C8.353 125.937 8.1716 125.315 7.8 124.82L7.6 124.97C7.9324 125.413 8.103 125.979 8.103 126.677H8.353ZM7.79884 124.818C7.41783 124.326 6.84904 124.088 6.116 124.088V124.338C6.79096 124.338 7.27817 124.554 7.60116 124.971L7.79884 124.818ZM6.116 124.088C5.38365 124.088 4.26992 124.421 2.78808 125.066L2.88792 125.295C4.36875 124.65 5.44035 124.338 6.116 124.338V124.088ZM2.713 125.181V133.651H2.963V125.181H2.713ZM2.838 133.526H1.672V133.776H2.838V133.526ZM1.797 133.651V123.201H1.547V133.651H1.797ZM1.672 123.326H2.794V123.076H1.672V123.326ZM13.508 124.499L13.4074 124.425L13.4072 124.425L13.508 124.499ZM19.536 124.389L19.4352 124.463L19.436 124.464L19.536 124.389ZM20.526 127.909L20.651 127.916V127.909H20.526ZM20.46 129.009V129.134H20.5777L20.5848 129.016L20.46 129.009ZM13.728 129.009V128.884H13.5944L13.6033 129.017L13.728 129.009ZM14.608 131.693L14.5077 131.767L14.5085 131.768L14.608 131.693ZM19.91 132.067L20.0297 132.031L19.9922 131.906L19.8688 131.949L19.91 132.067ZM20.24 133.167L20.2847 133.283L20.3931 133.242L20.3597 133.131L20.24 133.167ZM13.596 132.419L13.4971 132.495L13.4984 132.497L13.596 132.419ZM13.728 127.909L13.6031 127.904L13.5977 128.034H13.728V127.909ZM19.272 127.909V128.034H19.397V127.909H19.272ZM12.599 128.437C12.599 126.765 12.9408 125.482 13.6088 124.573L13.4072 124.425C12.6965 125.393 12.349 126.735 12.349 128.437H12.599ZM13.6086 124.573C14.2858 123.656 15.2652 123.194 16.566 123.194V122.944C15.1974 122.944 14.1382 123.435 13.4074 124.425L13.6086 124.573ZM16.566 123.194C17.8708 123.194 18.8187 123.622 19.4352 124.463L19.6368 124.315C18.9626 123.395 17.9305 122.944 16.566 122.944V123.194ZM19.436 124.464C20.0751 125.316 20.401 126.46 20.401 127.909H20.651C20.651 126.424 20.3169 125.222 19.636 124.314L19.436 124.464ZM20.4012 127.901L20.3352 129.001L20.5848 129.016L20.6508 127.916L20.4012 127.901ZM20.46 128.884H13.728V129.134H20.46V128.884ZM13.6033 129.017C13.6778 130.134 13.9765 131.054 14.5077 131.767L14.7083 131.618C14.2128 130.953 13.9249 130.083 13.8527 129L13.6033 129.017ZM14.5085 131.768C15.047 132.476 15.7888 132.83 16.72 132.83V132.58C15.8619 132.58 15.1957 132.259 14.7075 131.617L14.5085 131.768ZM16.72 132.83C17.6479 132.83 18.7257 132.613 19.9512 132.185L19.8688 131.949C18.6596 132.371 17.6108 132.58 16.72 132.58V132.83ZM19.7903 132.103L20.1203 133.203L20.3597 133.131L20.0297 132.031L19.7903 132.103ZM20.1953 133.05C19.0185 133.5 17.9191 133.724 16.896 133.724V133.974C17.9556 133.974 19.0855 133.742 20.2847 133.283L20.1953 133.05ZM16.896 133.724C15.4891 133.724 14.4282 133.259 13.6936 132.341L13.4984 132.497C14.2891 133.485 15.4282 133.974 16.896 133.974V133.724ZM13.6949 132.342C12.9692 131.403 12.599 130.106 12.599 128.437H12.349C12.349 130.141 12.7268 131.498 13.4971 132.495L13.6949 132.342ZM16.654 124.066C15.6991 124.066 14.9539 124.388 14.4383 125.043C13.9274 125.692 13.6549 126.652 13.6031 127.904L13.8529 127.914C13.9037 126.687 14.1702 125.788 14.6347 125.198C15.0945 124.613 15.7609 124.316 16.654 124.316V124.066ZM13.728 128.034H19.272V127.784H13.728V128.034ZM19.397 127.909C19.397 126.659 19.1776 125.699 18.7197 125.048C18.2562 124.39 17.5602 124.066 16.654 124.066V124.316C17.4931 124.316 18.1062 124.611 18.5153 125.192C18.9301 125.781 19.147 126.68 19.147 127.909H19.397ZM31.086 123.201V123.076H30.9753L30.9619 123.186L31.086 123.201ZM32.23 123.201L32.3541 123.216L32.3709 123.076H32.23V123.201ZM30.976 133.651V133.776H31.0869L31.1001 133.666L30.976 133.651ZM28.644 133.651L28.5226 133.681L28.5461 133.776H28.644V133.651ZM27.522 129.097L27.6434 129.067L27.6199 128.972H27.522V129.097ZM27.434 129.097V128.972H27.3365L27.3128 129.066L27.434 129.097ZM26.29 133.651V133.776H26.3875L26.4112 133.681L26.29 133.651ZM23.98 133.651L23.8558 133.665L23.8686 133.776H23.98V133.651ZM22.77 123.201V123.076H22.6297L22.6458 123.215L22.77 123.201ZM23.914 123.201L24.0381 123.186L24.0247 123.076H23.914V123.201ZM25.058 132.595L24.9339 132.61L24.9473 132.72H25.058V132.595ZM25.454 132.595V132.72H25.549L25.5744 132.628L25.454 132.595ZM26.928 127.293V127.168H26.833L26.8076 127.259L26.928 127.293ZM28.072 127.293L28.1924 127.259L28.167 127.168H28.072V127.293ZM29.546 132.595L29.4256 132.628L29.451 132.72H29.546V132.595ZM29.942 132.595V132.72H30.0527L30.0661 132.61L29.942 132.595ZM31.086 123.326H32.23V123.076H31.086V123.326ZM32.1059 123.186L30.8519 133.636L31.1001 133.666L32.3541 123.216L32.1059 123.186ZM30.976 133.526H28.644V133.776H30.976V133.526ZM28.7654 133.621L27.6434 129.067L27.4006 129.127L28.5226 133.681L28.7654 133.621ZM27.522 128.972H27.434V129.222H27.522V128.972ZM27.3128 129.066L26.1688 133.62L26.4112 133.681L27.5552 129.127L27.3128 129.066ZM26.29 133.526H23.98V133.776H26.29V133.526ZM24.1042 133.636L22.8942 123.186L22.6458 123.215L23.8558 133.665L24.1042 133.636ZM22.77 123.326H23.914V123.076H22.77V123.326ZM23.7899 123.216L24.9339 132.61L25.1821 132.58L24.0381 123.186L23.7899 123.216ZM25.058 132.72H25.454V132.47H25.058V132.72ZM25.5744 132.628L27.0484 127.326L26.8076 127.259L25.3336 132.561L25.5744 132.628ZM26.928 127.418H28.072V127.168H26.928V127.418ZM27.9516 127.326L29.4256 132.628L29.6664 132.561L28.1924 127.259L27.9516 127.326ZM29.546 132.72H29.942V132.47H29.546V132.72ZM30.0661 132.61L31.2101 123.216L30.9619 123.186L29.8179 132.58L30.0661 132.61Z" fill="white"></path> </svg> 