<?xml version="1.0" encoding="UTF-8"?> <svg xmlns="http://www.w3.org/2000/svg" width="817" height="71" viewBox="0 0 817 71" fill="none"> <path fill-rule="evenodd" clip-rule="evenodd" d="M763.747 1.06012H790.388L817 27.656L790.388 54.2521H763.747L790.388 27.656L763.747 1.06012ZM750.328 1.06147L776.968 27.6574L750.328 54.2534H723.715L750.328 27.6574L723.715 1.06147H750.328Z" fill="white"></path> <path fill-rule="evenodd" clip-rule="evenodd" d="M349.989 35.2548V25.3372H376.294V25.896C376.231 29.91 375.532 33.8887 374.226 37.6853C373.024 41.6209 370.93 45.2255 368.104 48.2175C365.634 50.683 362.672 52.6015 359.412 53.8481C356.15 55.0946 352.664 55.6415 349.178 55.4532C345.656 55.4857 342.149 54.977 338.78 53.9446C335.341 52.7768 332.254 50.7587 329.807 48.0778C327.226 45.3991 325.207 42.2327 323.87 38.7643C322.53 35.296 321.896 31.5954 322.007 27.8794C321.796 24.1184 322.392 20.3557 323.757 16.8441C325.121 13.3326 327.221 10.1535 329.917 7.52044C332.613 4.88739 335.84 2.86133 339.385 1.57836C342.928 0.295393 346.707 -0.214774 350.464 0.0821358C355.706 -0.0967689 360.881 1.28396 365.337 4.04919C368.897 6.48232 371.837 9.71658 373.918 13.4919L362.737 19.4703C361.674 17.2073 360.07 15.2404 358.069 13.7433C355.713 12.0388 352.868 11.1465 349.961 11.2011C347.93 11.1002 345.899 11.4315 344.005 12.1732C342.113 12.9149 340.398 14.0499 338.976 15.5033C337.432 17.194 336.238 19.1722 335.462 21.3246C334.684 23.4769 334.338 25.7614 334.447 28.0471C334.323 30.2705 334.656 32.4957 335.426 34.5857C336.195 36.6757 337.384 38.5862 338.919 40.1997C340.319 41.5941 341.993 42.6819 343.837 43.3938C345.68 44.1056 347.652 44.426 349.626 44.3343C352.937 44.5457 356.214 43.5535 358.85 41.5406C360.801 39.9185 362.182 37.7162 362.792 35.2548H349.989ZM138.792 52.4927V38.5242V38.4683C137.247 40.1712 135.373 41.5438 133.284 42.504C131.194 43.4644 128.931 43.9921 126.632 44.0556C124.495 44.1344 122.365 43.771 120.376 42.988C118.386 42.205 116.58 41.0194 115.071 39.5058C113.561 37.9922 112.381 36.1831 111.605 34.1922C110.828 32.2012 110.472 30.0713 110.558 27.936C110.495 25.6585 110.911 23.3928 111.777 21.2854C112.644 19.1777 113.943 17.2751 115.59 15.6997C118.461 12.9628 122.302 11.4758 126.269 11.565C128.613 11.5776 130.93 12.0813 133.067 13.0437C135.205 14.0061 137.117 15.4058 138.681 17.1524V3.0163C134.683 1.18771 130.356 0.189736 125.961 0.0829153C122.357 0.000669667 118.773 0.632258 115.414 1.94125C112.056 3.25024 108.99 5.21075 106.393 7.7097C103.677 10.2638 101.528 13.3587 100.083 16.7945C98.6387 20.2303 97.9312 23.9307 98.0065 27.6567C97.9238 31.4044 98.6272 35.1279 100.072 38.5874C101.516 42.047 103.669 45.1659 106.393 47.7434C109.171 50.313 112.434 52.3037 115.99 53.5988C119.547 54.8939 123.326 55.4676 127.107 55.2864C131.169 55.2922 135.174 54.3348 138.792 52.4927ZM161.799 21.4543V1.28386H149.555V54.2524H161.799V31.791H182.932V54.2524H195.177V1.28386H182.932V21.4543H161.799ZM241.918 54.2516L237.949 44.2501H217.905L213.851 54.2516H201.132L222.517 1.17124H233.699L254.553 54.2516H241.918ZM221.483 34.8633H234.594L228.08 17.0674L221.483 34.8633ZM260.898 54.2524H273.142V19.9457L301.907 54.2524H312.559V1.28386H300.314V35.4229L271.549 1.28386H260.898V54.2524ZM415.152 11.5926V1.28386H385.185V54.2524H415.152V43.9435H397.429V32.1822H414.286V21.8455H397.429V11.5926H415.152ZM426.082 1.28386H438.326V43.9435H454.792V54.2524H426.082V1.28386ZM473.157 1.28386H460.914V54.2524H489.594V43.9435H473.157V1.28386ZM526.467 1.28386V11.5926H508.744V21.8455H525.599V32.1822H508.744V43.9435H526.467V54.2524H496.499V1.28386H526.467ZM537.399 54.2524H549.643V19.9457L578.408 54.2524H589.058V1.28386H576.814V35.4229L548.049 1.28386H537.399V54.2524ZM626.349 35.2548V25.3372H652.655V25.896C652.603 29.9114 651.905 33.8922 650.586 37.6853C649.385 41.6209 647.29 45.2255 644.464 48.2175C641.993 50.683 639.032 52.6015 635.771 53.8481C632.511 55.0946 629.025 55.6415 625.539 55.4532C622.014 55.4857 618.508 54.977 615.139 53.9446C611.701 52.7768 608.614 50.7587 606.165 48.0778C603.592 45.3967 601.578 42.2294 600.244 38.7612C598.91 35.2928 598.281 31.5935 598.395 27.8794C598.184 24.1184 598.78 20.3557 600.144 16.8441C601.509 13.3326 603.609 10.1535 606.305 7.52044C609 4.88739 612.228 2.86133 615.773 1.57836C619.316 0.295393 623.095 -0.214774 626.852 0.0821358C632.094 -0.101853 637.271 1.27926 641.725 4.04919C645.29 6.47513 648.232 9.71106 650.306 13.4919L639.264 19.4703C638.232 17.229 636.678 15.2657 634.735 13.7433C632.383 12.0352 629.536 11.1424 626.629 11.2011C624.6 11.097 622.574 11.427 620.684 12.1689C618.794 12.9109 617.085 14.0477 615.67 15.5033C614.118 17.1892 612.916 19.166 612.135 21.319C611.352 23.4723 611.005 25.759 611.114 28.0471C610.989 30.2705 611.323 32.4957 612.092 34.5857C612.861 36.6757 614.05 38.5862 615.587 40.1997C616.992 41.6012 618.677 42.6932 620.53 43.4053C622.383 44.1173 624.365 44.4337 626.349 44.3343C629.661 44.5509 632.939 43.558 635.573 41.5406C637.44 39.8898 638.733 37.6884 639.264 35.2548H626.349ZM691.652 11.5926V1.28386H661.684V54.2524H691.652V43.9435H673.928V32.1822H690.784V21.8455H673.928V11.5926H691.652Z" fill="white"></path> <path d="M11.52 1.512V27.216C13.728 24.336 16.728 22.896 20.52 22.896C24.648 22.896 28.128 24.36 30.96 27.288C33.84 30.168 35.28 34.008 35.28 38.808C35.28 43.224 33.936 47.016 31.248 50.184C28.608 53.352 25.056 54.936 20.592 54.936C16.896 54.936 13.872 53.568 11.52 50.832V54H4.464V1.512H11.52ZM19.656 29.232C17.256 29.232 15.216 30.096 13.536 31.824C11.904 33.504 11.088 35.904 11.088 39.024C11.088 42.048 11.904 44.4 13.536 46.08C15.216 47.76 17.256 48.6 19.656 48.6C22.152 48.6 24.168 47.664 25.704 45.792C27.288 43.92 28.08 41.64 28.08 38.952C28.08 36.216 27.288 33.912 25.704 32.04C24.168 30.168 22.152 29.232 19.656 29.232ZM39.2986 70.488L50.4586 49.248L37.4986 23.688H45.9946L54.6346 41.4L63.4186 23.688H71.3386L47.2186 70.488H39.2986Z" fill="white"></path> </svg> 